<svg width="92" height="28" viewBox="0 0 92 28" fill="none" xmlns="http://www.w3.org/2000/svg">
<path d="M85.4056 0H6.93137C6.67552 0 6.43794 0 6.18209 0C5.98106 0 5.76175 0 5.56072 0C5.10384 0.0186136 4.64696 0.0372272 4.20836 0.130295C3.75147 0.20475 3.33114 0.353659 2.92908 0.558408C2.52703 0.763158 2.16152 1.04236 1.83256 1.37741C1.50361 1.71245 1.24775 2.08472 1.02844 2.49422C0.809141 2.92234 0.681216 3.35045 0.608114 3.79718C0.535013 4.26252 0.49846 4.70924 0.480185 5.17458C0.480185 5.37933 0.480189 5.6027 0.461914 5.80745C0.461914 6.04942 0.461914 6.31001 0.461914 6.55199V21.3312C0.461914 21.5918 0.461914 21.8338 0.461914 22.0757C0.461914 22.2805 0.46191 22.5039 0.480185 22.7086C0.49846 23.1739 0.516738 23.6393 0.608114 24.086C0.681216 24.5514 0.827416 24.9795 1.02844 25.389C1.22947 25.7985 1.50361 26.1707 1.83256 26.5058C2.16152 26.8408 2.52703 27.1014 2.92908 27.3248C3.34942 27.5481 3.76975 27.6784 4.20836 27.7529C4.66524 27.8273 5.12212 27.8646 5.56072 27.8832C5.76175 27.8832 5.98106 27.8832 6.18209 27.8832C6.43794 27.8832 6.67552 27.8832 6.93137 27.8832H85.4056C85.6432 27.8832 85.8991 27.8832 86.1366 27.8832C86.3377 27.8832 86.557 27.8832 86.758 27.8832C87.2149 27.8646 87.6718 27.846 88.1104 27.7529C88.5673 27.6784 88.9876 27.5295 89.4079 27.3248C89.81 27.12 90.1755 26.8408 90.5044 26.5058C90.8334 26.1893 91.0893 25.7985 91.3086 25.389C91.5096 24.9795 91.6558 24.5327 91.7289 24.086C91.8203 23.6207 91.8385 23.1739 91.8568 22.7086C91.8568 22.5039 91.8568 22.2805 91.8568 22.0757C91.8568 21.8338 91.8568 21.5732 91.8568 21.3312V6.5706C91.8568 6.31001 91.8568 6.06804 91.8568 5.82606C91.8568 5.62131 91.8568 5.39795 91.8568 5.1932C91.8385 4.72786 91.8203 4.26252 91.7289 3.81579C91.6558 3.35045 91.5096 2.92234 91.3086 2.51284C91.1075 2.10334 90.8334 1.73107 90.5044 1.39602C90.1938 1.06098 89.81 0.800385 89.4079 0.577022C88.9876 0.372272 88.5673 0.223363 88.1104 0.148909C87.6718 0.0744544 87.2149 0.0372272 86.758 0.0186136C86.557 0.0186136 86.3377 0.0186136 86.1366 0.0186136C85.8991 0 85.6615 0 85.4056 0Z" fill="#B6B6B6"/>
<path d="M6.20056 27.3245C5.99953 27.3245 5.7985 27.3245 5.59747 27.3245C5.21369 27.3059 4.77508 27.2873 4.33647 27.2129C3.91614 27.1384 3.55064 27.0081 3.22168 26.8406C2.87445 26.6545 2.54549 26.4311 2.27136 26.1333C1.99723 25.8541 1.75965 25.5376 1.5769 25.1654C1.39415 24.8117 1.2845 24.4394 1.2114 24.0299C1.12002 23.5646 1.10175 23.0993 1.10175 22.7456C1.10175 22.5967 1.08347 22.1127 1.08347 22.1127V5.82582C1.08347 5.82582 1.08347 5.34187 1.10175 5.21158C1.10175 4.85792 1.13829 4.37396 1.2114 3.92724C1.2845 3.49912 1.41242 3.12685 1.5769 2.77319C1.75965 2.41953 1.97896 2.08449 2.27136 1.80528C2.54549 1.52608 2.87445 1.2841 3.22168 1.09797C3.56891 0.911831 3.93441 0.80015 4.33647 0.725695C4.79335 0.651241 5.25024 0.614014 5.59747 0.614014H6.20056H86.1551H86.7765C87.1237 0.614014 87.5806 0.651241 88.0375 0.725695C88.4395 0.80015 88.8051 0.930445 89.1706 1.09797C89.5178 1.2841 89.8285 1.50747 90.1209 1.80528C90.395 2.08449 90.6326 2.40092 90.8153 2.77319C90.9981 3.12685 91.1077 3.49912 91.1808 3.90862C91.2539 4.33674 91.2905 4.78346 91.2905 5.21158C91.2905 5.39771 91.2905 5.62108 91.2905 5.82582C91.2905 6.08642 91.2905 6.32839 91.2905 6.57037V21.3496C91.2905 21.5916 91.2905 21.8521 91.2905 22.0941C91.2905 22.3175 91.2905 22.5222 91.2905 22.727C91.2722 23.1365 91.2539 23.5832 91.1808 24.0113C91.1077 24.4394 90.9981 24.8117 90.8153 25.1654C90.6326 25.519 90.395 25.8541 90.1209 26.1147C89.8467 26.3939 89.5178 26.6358 89.1706 26.822C88.8233 27.0081 88.4578 27.1198 88.0375 27.1943C87.5989 27.2687 87.1603 27.2873 86.7765 27.3059C86.5754 27.3059 86.3744 27.3059 86.1734 27.3059H85.4424L6.20056 27.3245Z" fill="black"/>
<path d="M34.3999 18.8554H31.1835L30.3976 21.0332H28.9904L32.1338 12.8618H33.4679L36.6843 21.0332H35.204L34.3999 18.8554ZM31.5855 17.7386H33.9796L33.1206 15.3933C33.011 15.0768 32.8831 14.7046 32.7734 14.3137C32.6638 14.6673 32.5541 15.021 32.4445 15.3747L31.5855 17.7386Z" fill="white"/>
<path d="M37.252 16.4358C37.252 15.9891 37.2337 15.4865 37.2154 14.9467H38.4947C38.5495 15.2073 38.5678 15.4493 38.5861 15.7099C39.1161 15.1142 39.7192 14.8164 40.4136 14.8164C40.8157 14.8164 41.1812 14.9095 41.5284 15.1142C41.8757 15.319 42.1498 15.6354 42.3508 16.0821C42.5518 16.5289 42.6615 17.0873 42.6615 17.7574C42.6615 18.4647 42.5336 19.0789 42.296 19.5815C42.0584 20.0841 41.7295 20.4749 41.2908 20.7169C40.8705 20.9775 40.3771 21.1078 39.8105 21.1078C39.4085 21.1078 39.0064 21.0334 38.6044 20.9031V23.4531L37.2337 23.5648V16.4358H37.252ZM40.8522 19.5443C41.1264 19.172 41.2726 18.6136 41.2726 17.869C41.2726 17.1803 41.1629 16.6964 40.9253 16.3986C40.6878 16.1007 40.3954 15.9332 40.0116 15.9332C39.7374 15.9332 39.4999 15.9891 39.2806 16.1194C39.0613 16.2497 38.8419 16.4172 38.6409 16.6405V19.8979C38.7688 19.9724 38.9333 20.0282 39.1161 20.0654C39.2988 20.1027 39.4816 20.1213 39.6461 20.1213C40.1578 20.1213 40.5598 19.9351 40.8522 19.5443Z" fill="white"/>
<path d="M43.4838 16.4358C43.4838 15.9891 43.4655 15.4865 43.4473 14.9467H44.7265C44.7814 15.2073 44.7996 15.4493 44.8179 15.7099C45.3479 15.1142 45.951 14.8164 46.6455 14.8164C47.0475 14.8164 47.413 14.9095 47.7603 15.1142C48.1075 15.319 48.3816 15.6354 48.5826 16.0821C48.7837 16.5289 48.8933 17.0873 48.8933 17.7574C48.8933 18.4647 48.7654 19.0789 48.5278 19.5815C48.2902 20.0841 47.9613 20.4749 47.5227 20.7169C47.1023 20.9775 46.6089 21.1078 46.0424 21.1078C45.6403 21.1078 45.2383 21.0334 44.8362 20.9031V23.4531L43.4656 23.5648V16.4358H43.4838ZM47.0841 19.5443C47.3582 19.172 47.5044 18.6136 47.5044 17.869C47.5044 17.1803 47.3948 16.6964 47.1572 16.3986C46.9196 16.1007 46.6272 15.9332 46.2434 15.9332C45.9693 15.9332 45.7317 15.9891 45.5124 16.1194C45.2931 16.2497 45.0738 16.4172 44.8728 16.6405V19.8979C45.0007 19.9724 45.1652 20.0282 45.3479 20.0654C45.5307 20.1027 45.7134 20.1213 45.8779 20.1213C46.3896 20.1213 46.8099 19.9351 47.0841 19.5443Z" fill="white"/>
<path d="M51.3973 20.6424C50.8125 20.3073 50.3556 19.842 50.0449 19.2091C49.7342 18.5949 49.5698 17.8503 49.5698 17.0127C49.5698 16.1006 49.7525 15.3189 50.118 14.686C50.4835 14.0531 50.977 13.5692 51.6166 13.2528C52.238 12.9363 52.9507 12.7688 53.7365 12.7688C54.1934 12.7688 54.632 12.8246 55.0524 12.9177C55.4727 13.0294 55.8565 13.1597 56.222 13.3458L55.8748 14.4254C55.1437 14.0718 54.4493 13.9042 53.7914 13.9042C53.2431 13.9042 52.7497 14.0345 52.3293 14.2765C51.909 14.5185 51.5801 14.8721 51.3608 15.3375C51.1232 15.8028 51.0135 16.3798 51.0135 17.0313C51.0135 17.6083 51.1049 18.1295 51.2876 18.5762C51.4704 19.023 51.7445 19.3766 52.1283 19.6558C52.5121 19.9164 53.0055 20.0467 53.5903 20.0467C53.8645 20.0467 54.1203 20.0281 54.3945 19.9723C54.6686 19.9164 54.9062 19.8606 55.1437 19.7675V18.1109H53.2979V17.0313H56.4778V20.4748C56.021 20.6982 55.5458 20.8657 55.0341 20.9774C54.5224 21.0891 54.0289 21.1449 53.5355 21.1449C52.6948 21.1449 52.0004 20.9774 51.3973 20.6424Z" fill="white"/>
<path d="M61.2828 21.0332C61.2279 20.7913 61.2097 20.5307 61.1914 20.2328C60.9721 20.4934 60.7162 20.6982 60.369 20.8843C60.04 21.0705 59.6562 21.1449 59.2176 21.1449C58.8704 21.1449 58.5597 21.0705 58.2856 20.9402C58.0115 20.8099 57.7739 20.6051 57.6094 20.3259C57.4449 20.0467 57.3536 19.7117 57.3536 19.3208C57.3536 18.7251 57.5546 18.2598 57.9749 17.9061C58.3952 17.5525 59.0897 17.385 60.0583 17.385C60.4238 17.385 60.7893 17.4036 61.1366 17.4594V17.3477C61.1366 16.8079 61.0269 16.4357 60.8076 16.2123C60.5883 15.9889 60.2593 15.8773 59.839 15.8773C59.5466 15.8773 59.2359 15.9145 58.907 16.0076C58.578 16.1006 58.2856 16.1937 58.0297 16.324L57.8104 15.3189C58.048 15.2072 58.377 15.0955 58.779 15.0024C59.1811 14.9094 59.6014 14.8535 60.04 14.8535C60.5517 14.8535 60.9903 14.928 61.3558 15.0955C61.7214 15.263 61.9955 15.5236 62.1965 15.9145C62.3975 16.3054 62.5072 16.8266 62.5072 17.478V19.8978C62.5072 20.1584 62.5255 20.5307 62.5437 21.0332H61.2828V21.0332ZM60.4786 19.8978C60.771 19.7675 60.9903 19.5814 61.1731 19.3766V18.2412C60.8076 18.204 60.4969 18.1854 60.2593 18.1854C59.6928 18.1854 59.309 18.2784 59.0897 18.4646C58.8704 18.6507 58.7608 18.8927 58.7608 19.2091C58.7608 19.5069 58.8339 19.7303 58.9983 19.8792C59.1628 20.0281 59.3638 20.1026 59.638 20.1026C59.9121 20.1212 60.1862 20.0467 60.4786 19.8978Z" fill="white"/>
<path d="M63.5863 19.5814V12.3966L64.9387 12.2849V19.3395C64.9387 19.6001 64.9753 19.7862 65.0666 19.8979C65.158 20.0096 65.2859 20.0654 65.487 20.0654C65.5784 20.0654 65.688 20.0468 65.8525 20.0096L66.017 21.0147C65.889 21.0705 65.7246 21.1078 65.5418 21.145C65.359 21.1822 65.1763 21.2008 65.0118 21.2008C64.0615 21.145 63.5863 20.6238 63.5863 19.5814Z" fill="white"/>
<path d="M66.9847 19.5814V12.3966L68.3371 12.2849V19.3395C68.3371 19.6001 68.3737 19.7862 68.465 19.8979C68.5564 20.0096 68.6843 20.0654 68.8854 20.0654C68.9767 20.0654 69.0864 20.0468 69.2509 20.0096L69.4154 21.0147C69.2874 21.0705 69.1229 21.1078 68.9402 21.145C68.7574 21.1822 68.5747 21.2008 68.4102 21.2008C67.4599 21.145 66.9847 20.6238 66.9847 19.5814Z" fill="white"/>
<path d="M75.0087 18.1669H71.0978C71.1526 19.4326 71.7557 20.0841 72.8887 20.0841C73.1629 20.0841 73.4553 20.0468 73.7477 19.9724C74.0401 19.8979 74.3142 19.8049 74.5883 19.6932L74.8807 20.6425C74.2046 20.9775 73.4553 21.145 72.6329 21.145C71.9932 21.145 71.4633 21.0147 71.0247 20.7728C70.586 20.5308 70.2571 20.1771 70.0378 19.7118C69.8185 19.2464 69.7088 18.7067 69.7088 18.0552C69.7088 17.3851 69.8185 16.8081 70.0561 16.3241C70.2936 15.8402 70.6043 15.4679 71.0247 15.2073C71.445 14.9467 71.9202 14.8164 72.4684 14.8164C73.0349 14.8164 73.5101 14.9467 73.8756 15.2259C74.2594 15.4865 74.5335 15.8588 74.7163 16.3055C74.899 16.7522 74.9904 17.2548 74.9904 17.7946V18.1669H75.0087ZM73.6746 17.292C73.6563 16.8081 73.5284 16.4358 73.3091 16.1938C73.0898 15.9518 72.8156 15.8215 72.4501 15.8215C72.1029 15.8215 71.8105 15.9518 71.5912 16.1938C71.3536 16.4358 71.2074 16.8081 71.1343 17.2734H73.6746V17.292Z" fill="white"/>
<path d="M76.03 16.4729C76.03 16.1379 76.0117 15.6353 75.9934 14.9466H77.2727C77.291 15.1141 77.3092 15.3189 77.3275 15.5608C77.3458 15.8028 77.3641 15.9889 77.3641 16.1379C77.5285 15.8773 77.6748 15.6539 77.8392 15.4678C77.9854 15.2816 78.1682 15.1327 78.3692 15.021C78.5702 14.9094 78.8078 14.8535 79.0637 14.8535C79.283 14.8535 79.4475 14.8721 79.6119 14.928L79.4475 16.1379C79.3195 16.1006 79.1733 16.082 79.0088 16.082C78.6799 16.082 78.4058 16.1565 78.1682 16.324C77.9306 16.4915 77.6748 16.7707 77.4006 17.143V21.0518H76.0482V16.4729H76.03Z" fill="white"/>
<path d="M80.3821 23.5274C80.1811 23.4902 80.0166 23.453 79.8887 23.3971L80.1445 22.392C80.2359 22.4106 80.3456 22.4478 80.4918 22.4664C80.638 22.485 80.7659 22.5037 80.8938 22.5037C81.4969 22.5037 81.9538 22.1128 82.2462 21.3124L82.3376 21.089L80.1445 14.9651H81.6066L82.7213 18.3901C82.9041 18.9671 83.0138 19.4324 83.0686 19.7302C83.1782 19.2835 83.2879 18.8554 83.4341 18.4087L84.5489 14.9465H85.9195L83.7265 21.1076C83.5255 21.6847 83.2879 22.1686 83.0503 22.5223C82.8127 22.8759 82.5203 23.1365 82.2096 23.3227C81.8807 23.4902 81.4969 23.5832 81.0217 23.5832C80.8024 23.5832 80.5831 23.5646 80.3821 23.5274Z" fill="white"/>
<path d="M32.9364 8.67391V10.2188L32.242 10.2747V9.30677H29.3179V10.2188L28.6417 10.2747V8.67391H28.9707C29.1717 8.2458 29.3179 7.706 29.4276 7.09175C29.5372 6.4775 29.592 5.80741 29.6103 5.1001H32.2968V8.67391H32.9364V8.67391ZM30.0855 7.2965C29.9941 7.8363 29.8662 8.30164 29.7017 8.67391H31.584V5.73296H30.2682C30.2499 6.23553 30.1951 6.75671 30.0855 7.2965Z" fill="white"/>
<path d="M34.2153 9.10177C33.9046 8.93425 33.6853 8.67366 33.5208 8.35723C33.3563 8.0408 33.2832 7.66852 33.2832 7.24041C33.2832 6.79368 33.3746 6.4028 33.5391 6.06775C33.7036 5.73271 33.9594 5.47212 34.2701 5.30459C34.599 5.11846 34.9645 5.02539 35.4032 5.02539C35.8235 5.02539 36.1707 5.11846 36.4814 5.28598C36.7738 5.4535 37.0114 5.71409 37.1759 6.03053C37.3403 6.34696 37.4134 6.71923 37.4134 7.12873C37.4134 7.57546 37.3221 7.96634 37.1576 8.30139C36.9931 8.63643 36.7373 8.89702 36.4266 9.06454C36.1159 9.25068 35.7321 9.34375 35.3118 9.34375C34.8732 9.36236 34.5077 9.26929 34.2153 9.10177ZM36.0611 8.58059C36.2621 8.45029 36.4083 8.26416 36.518 8.02218C36.6093 7.7802 36.6642 7.501 36.6642 7.20318C36.6642 6.90537 36.6276 6.62616 36.5362 6.4028C36.4448 6.16082 36.3169 5.97468 36.1159 5.84439C35.9149 5.69548 35.6773 5.63964 35.3666 5.63964C35.0742 5.63964 34.8366 5.71409 34.6356 5.84439C34.4346 5.9933 34.2884 6.17943 34.1787 6.42141C34.0691 6.66339 34.0325 6.92398 34.0325 7.2218C34.0325 7.51961 34.0873 7.79882 34.1787 8.0408C34.2701 8.28277 34.4163 8.46891 34.6173 8.61782C34.8183 8.76673 35.0559 8.82257 35.3483 8.82257C35.6225 8.78534 35.86 8.7295 36.0611 8.58059Z" fill="white"/>
<path d="M38.8769 9.12033C38.5662 8.9528 38.3469 8.71083 38.1824 8.39439C38.018 8.07796 37.9449 7.70569 37.9449 7.25896C37.9449 6.81224 38.0362 6.40274 38.2007 6.06769C38.3652 5.73265 38.6028 5.47206 38.9135 5.30454C39.2241 5.1184 39.5714 5.04395 39.9734 5.04395C40.1927 5.04395 40.412 5.06256 40.6131 5.1184C40.8141 5.17424 40.9968 5.2487 41.1796 5.34176L40.9968 5.90017C40.6496 5.71404 40.3207 5.62097 40.01 5.62097C39.7358 5.62097 39.48 5.67681 39.2972 5.8071C39.0962 5.9374 38.95 6.12353 38.8404 6.36551C38.7307 6.60749 38.6941 6.88669 38.6941 7.22174C38.6941 7.53817 38.749 7.79876 38.8404 8.04074C38.9317 8.28271 39.0962 8.45024 39.2972 8.59915C39.4983 8.72944 39.7541 8.80389 40.0648 8.80389C40.3938 8.80389 40.7227 8.72944 41.0699 8.56192L41.2344 9.10171C41.0517 9.19478 40.8689 9.26923 40.6679 9.30646C40.4669 9.3623 40.2476 9.38092 39.9917 9.38092C39.5531 9.3623 39.1876 9.28785 38.8769 9.12033Z" fill="white"/>
<path d="M41.5452 9.36267C41.4721 9.34406 41.4173 9.32545 41.3624 9.30683L41.4355 8.72981C41.5086 8.76704 41.5817 8.76704 41.6548 8.76704C41.7279 8.76704 41.8011 8.74842 41.8559 8.69258C41.9107 8.63674 41.9472 8.56229 41.9838 8.46922C42.0203 8.37615 42.0569 8.22724 42.0752 8.05972C42.1848 7.37102 42.2762 6.3845 42.3128 5.08154H45.1454V9.30683H44.4327V5.73302H42.9707C42.9158 6.83122 42.8427 7.65022 42.7331 8.22724C42.6783 8.50645 42.6234 8.72981 42.5321 8.89733C42.4407 9.06486 42.3493 9.19515 42.2214 9.26961C42.0935 9.34406 41.9473 9.38129 41.7645 9.38129C41.6914 9.38129 41.6183 9.38129 41.5452 9.36267Z" fill="white"/>
<path d="M46.2245 5.1001H46.9373V9.30677H46.2245V5.1001Z" fill="white"/>
<path d="M51.9427 8.67391V10.2188L51.2482 10.2747V9.30677H48.3242V10.2188L47.648 10.2747V8.67391H47.977C48.178 8.2458 48.3242 7.706 48.4338 7.09175C48.5435 6.4775 48.5983 5.80741 48.6166 5.1001H51.3031V8.67391H51.9427V8.67391ZM49.0917 7.2965C49.0004 7.8363 48.8724 8.30164 48.708 8.67391H50.5903V5.73296H49.2745C49.2562 6.23553 49.2014 6.75671 49.0917 7.2965Z" fill="white"/>
<path d="M57.4619 9.30683H56.6578L55.5247 7.44547H55.1592V9.30683H54.4464V7.44547H54.0809L52.9296 9.30683H52.1255L53.5692 7.01736L52.893 5.91916C52.8382 5.82609 52.7651 5.75163 52.7103 5.71441C52.6555 5.67718 52.5823 5.65856 52.491 5.65856C52.4179 5.65856 52.3448 5.67718 52.2717 5.71441L52.1255 5.156C52.2534 5.10016 52.3996 5.08154 52.5641 5.08154C52.7651 5.08154 52.9296 5.11877 53.0575 5.21184C53.1854 5.30491 53.2951 5.4352 53.4047 5.62134L54.1723 6.88706H54.4282V5.156H55.1409V6.88706H55.3968L56.1643 5.62134C56.274 5.4352 56.3836 5.30491 56.5115 5.21184C56.6395 5.11877 56.804 5.08154 57.005 5.08154C57.1695 5.08154 57.3157 5.10016 57.4436 5.156L57.2974 5.71441C57.2243 5.67718 57.1512 5.65856 57.0781 5.65856C57.005 5.65856 56.9319 5.67718 56.8588 5.71441C56.804 5.75163 56.7309 5.82609 56.676 5.91916L55.9998 7.01736L57.4619 9.30683Z" fill="white"/>
<path d="M61.3376 5.1001L59.839 8.28303L59.7294 8.48777C59.6197 8.71114 59.5101 8.87866 59.4004 9.00896C59.2908 9.13925 59.1811 9.23232 59.0532 9.28816C58.9253 9.344 58.7791 9.38123 58.6146 9.38123C58.4318 9.38123 58.2856 9.36261 58.176 9.30677L58.2491 8.74837C58.3222 8.78559 58.4135 8.80421 58.5232 8.80421C58.5963 8.80421 58.6694 8.78559 58.7425 8.76698C58.7973 8.74837 58.8704 8.71114 58.9253 8.6553C58.9801 8.59946 59.0349 8.50639 59.0897 8.39471L59.1446 8.30164L57.4998 5.1001H58.2856L59.4735 7.59432L60.5883 5.1001H61.3376Z" fill="white"/>
<path d="M64.6814 9.30659V6.9985C64.6814 6.70068 64.6997 6.36564 64.718 5.99337L62.6346 9.30659H61.8487V5.09991H62.5067V7.50107C62.5067 7.76166 62.5067 8.04086 62.4884 8.35729L64.5352 5.09991H65.3576V9.30659H64.6814ZM63.0732 4.72764C62.927 4.65319 62.7991 4.5415 62.726 4.41121C62.6529 4.28091 62.598 4.15062 62.5798 4.00171H63.0915C63.1463 4.31814 63.329 4.46705 63.6214 4.46705C63.9139 4.46705 64.0966 4.31814 64.1697 4.00171H64.6814C64.6631 4.15062 64.6083 4.28091 64.5352 4.41121C64.4621 4.5415 64.3342 4.63457 64.188 4.72764C64.0418 4.82071 63.8408 4.85794 63.6214 4.85794C63.4021 4.85794 63.2194 4.80209 63.0732 4.72764Z" fill="white"/>
<path fill-rule="evenodd" clip-rule="evenodd" d="M18.9413 5.1189H11.357C7.77504 5.1189 6.47749 6.45908 6.47749 10.0887V17.8134C6.47749 21.4616 7.79332 22.7832 11.357 22.7832H18.9413C22.5232 22.7832 23.8208 21.443 23.8208 17.8134V10.0887C23.8391 6.45908 22.5232 5.1189 18.9413 5.1189Z" fill="#C8102E"/>
<path d="M9.91148 13.9604H10.3684V16.2685H9.91148V15.3379H8.8698V16.2685H8.41291V13.9604H8.8698V14.8911H9.91148V13.9604ZM12.5066 15.282C12.5066 15.6543 12.3238 15.859 11.9949 15.859C11.6659 15.859 11.4832 15.6543 11.4832 15.2634V13.9604H11.0263V15.282C11.0263 15.9335 11.3735 16.3058 11.9949 16.3058C12.6162 16.3058 12.9817 15.9335 12.9817 15.2634V13.9604H12.5249V15.282H12.5066ZM17.8247 15.5426L17.313 13.9604H16.9292L16.4175 15.5426L15.9241 13.9604H15.4306L16.2165 16.2685H16.6003L17.112 14.7422L17.6237 16.2685H18.0075L18.7933 13.9604H18.3181L17.8247 15.5426ZM19.634 15.282H20.4746V14.8539H19.634V14.3886H20.8584V13.9604H19.1954V16.2685H20.9132V15.8404H19.6522V15.282H19.634ZM21.4432 16.2685H21.9001V13.9604H21.4432V16.2685ZM13.8772 15.7846L13.6762 16.2685H13.201L14.1879 13.9604H14.59L15.5768 16.2685H15.1017L14.9007 15.7846H13.8772V15.7846ZM14.0417 15.3751H14.7362L14.3889 14.5561L14.0417 15.3751Z" fill="white"/>
<path d="M15.1563 11.0193C13.5664 11.0193 12.2688 9.69775 12.2688 8.07837H12.6709C12.6709 9.47439 13.7857 10.6098 15.1563 10.6098C16.527 10.6098 17.6418 9.47439 17.6418 8.07837H18.0438C18.0438 9.69775 16.7463 11.0193 15.1563 11.0193Z" fill="white"/>
</svg>
