<svg width="83" height="28" viewBox="0 0 83 28" fill="none" xmlns="http://www.w3.org/2000/svg">
<path d="M75.5623 9.06201e-05H6.54164C6.29005 9.06201e-05 6.04148 9.06201e-05 5.79056 0.00148478C5.58051 0.00287893 5.37214 0.00692895 5.16008 0.0103377C4.69938 0.0158458 4.23976 0.0570253 3.78522 0.133518C3.33132 0.211676 2.89164 0.359027 2.48105 0.570586C2.07096 0.783934 1.69625 1.06116 1.37051 1.3922C1.04306 1.72232 0.77011 2.10388 0.562147 2.52223C0.353611 2.93974 0.209011 3.38715 0.133341 3.84899C0.0569529 4.31025 0.0158476 4.77683 0.0103943 5.24454C0.00402734 5.45826 0.00335498 5.6727 0 5.88645V21.9989C0.00335498 22.2153 0.00402734 22.425 0.0103943 22.6415C0.0158492 23.1092 0.0569546 23.5758 0.133341 24.037C0.208802 24.4991 0.35341 24.9468 0.562147 25.3644C0.770015 25.7814 1.04301 26.1615 1.37051 26.4897C1.69501 26.8222 2.06997 27.0997 2.48105 27.3114C2.89164 27.5235 3.33127 27.6717 3.78522 27.7511C4.23984 27.827 4.69941 27.8682 5.16008 27.8743C5.37214 27.8791 5.58051 27.8818 5.79056 27.8818C6.04148 27.8832 6.29007 27.8832 6.54164 27.8832H75.5623C75.8089 27.8832 76.0594 27.8832 76.306 27.8818C76.5151 27.8818 76.7295 27.8791 76.9385 27.8743C77.3983 27.8685 77.857 27.8273 78.3107 27.7511C78.7661 27.6712 79.2073 27.523 79.6199 27.3114C80.0306 27.0995 80.4052 26.8221 80.7294 26.4897C81.0561 26.1602 81.3297 25.7804 81.5401 25.3644C81.7473 24.9465 81.8905 24.4988 81.9649 24.037C82.0414 23.5757 82.0839 23.1092 82.0922 22.6415C82.0949 22.425 82.0949 22.2153 82.0949 21.9989C82.1002 21.7456 82.1002 21.4938 82.1002 21.2364V6.64751C82.1002 6.39223 82.1002 6.139 82.0949 5.88645C82.0949 5.6727 82.0949 5.45826 82.0922 5.24451C82.0839 4.77676 82.0414 4.31028 81.9649 3.84896C81.8903 3.38739 81.7471 2.94002 81.5401 2.5222C81.1166 1.68367 80.445 1.00111 79.6199 0.570523C79.2073 0.359481 78.7661 0.21217 78.3107 0.133455C77.8571 0.0566255 77.3983 0.0154317 76.9385 0.0102401C76.7295 0.00683833 76.5151 0.00275346 76.306 0.00139415C76.0594 0 75.8089 0 75.5623 0V9.06201e-05Z" fill="#A6A6A6"/>
<path d="M5.79252 27.2733C5.58349 27.2733 5.3795 27.2706 5.1721 27.2659C4.74246 27.2602 4.31382 27.2222 3.8897 27.1522C3.49423 27.083 3.11113 26.9542 2.75303 26.7702C2.39822 26.5878 2.07459 26.3485 1.79457 26.0616C1.51048 25.7781 1.27397 25.4492 1.0944 25.0881C0.912858 24.7247 0.787217 24.3351 0.721858 23.9329C0.651276 23.5008 0.613089 23.0639 0.607624 22.6259C0.603275 22.4789 0.59758 21.9894 0.59758 21.9894V5.88652C0.59758 5.88652 0.603645 5.40456 0.607659 5.26296C0.612891 4.82567 0.650856 4.38942 0.721227 3.95798C0.786706 3.55474 0.912445 3.16402 1.09409 2.79937C1.273 2.4385 1.50819 2.10942 1.79057 1.82489C2.07262 1.53765 2.39728 1.29715 2.7527 1.11215C3.10997 0.928737 3.49235 0.80092 3.88702 0.732981C4.31253 0.662274 4.74266 0.624046 5.17379 0.618619L5.79286 0.610107H76.3012L76.9277 0.61896C77.3549 0.624118 77.7811 0.662005 78.2027 0.732298C78.6014 0.801089 78.9878 0.929798 79.3491 1.11419C80.0612 1.48702 80.6405 2.07687 81.006 2.80107C81.1848 3.16321 81.3086 3.55073 81.3732 3.9505C81.4444 4.38547 81.4843 4.82515 81.4925 5.26603C81.4945 5.46344 81.4945 5.67549 81.4945 5.88652C81.4999 6.14793 81.4999 6.39674 81.4999 6.64759V21.2365C81.4999 21.4897 81.4999 21.7369 81.4945 21.986C81.4945 22.2127 81.4945 22.4203 81.4918 22.6341C81.4838 23.0671 81.4446 23.4989 81.3745 23.9261C81.3105 24.3311 81.1856 24.7238 81.004 25.0902C80.8232 25.4474 80.5881 25.7734 80.3073 26.0561C80.027 26.3446 79.7028 26.5853 79.3471 26.7689C78.9868 26.9543 78.601 27.0835 78.2027 27.1522C77.7787 27.2225 77.35 27.2605 76.9203 27.2659C76.7194 27.2706 76.5089 27.2733 76.3046 27.2733L75.5609 27.2747L5.79252 27.2733Z" fill="black"/>
<path d="M16.9942 14.1514C17.0016 13.5695 17.1537 12.9991 17.4364 12.493C17.7191 11.987 18.1232 11.5618 18.611 11.257C18.3011 10.8073 17.8922 10.4372 17.4169 10.1761C16.9416 9.91503 16.4128 9.77015 15.8727 9.75298C14.7206 9.63011 13.6037 10.4534 13.0166 10.4534C12.4182 10.4534 11.5142 9.76518 10.5409 9.78553C9.91126 9.80619 9.29766 9.99221 8.75985 10.3255C8.22204 10.6587 7.77837 11.1278 7.47205 11.6871C6.14515 14.0212 7.1349 17.4515 8.40595 19.3382C9.04189 20.2621 9.78512 21.2941 10.7576 21.2575C11.7093 21.2174 12.0647 20.641 13.2134 20.641C14.3515 20.641 14.6849 21.2575 15.6771 21.2342C16.6983 21.2174 17.3417 20.3063 17.9553 19.3736C18.4122 18.7153 18.7638 17.9878 18.9971 17.2179C18.4038 16.963 17.8975 16.5362 17.5414 15.9909C17.1852 15.4456 16.9949 14.8058 16.9942 14.1514V14.1514Z" fill="white"/>
<path d="M15.1199 8.51185C15.6767 7.83275 15.951 6.95988 15.8846 6.07861C15.0339 6.16939 14.2482 6.58245 13.6839 7.23549C13.408 7.55452 13.1967 7.92567 13.062 8.32772C12.9274 8.72977 12.8721 9.15485 12.8992 9.57864C13.3247 9.58309 13.7456 9.48939 14.1303 9.30461C14.5149 9.11982 14.8533 8.84876 15.1199 8.51185Z" fill="white"/>
<path d="M29.0228 18.9184H25.7753L24.9954 21.2581H23.6199L26.6959 12.6018H28.125L31.201 21.2581H29.802L29.0228 18.9184ZM26.1116 17.8388H28.6858L27.4168 14.0416H27.3813L26.1116 17.8388Z" fill="white"/>
<path d="M37.8438 18.1027C37.8438 20.064 36.8107 21.324 35.2515 21.324C34.8566 21.345 34.4638 21.2526 34.1182 21.0573C33.7725 20.862 33.488 20.5718 33.2971 20.2198H33.2676V23.3458H31.9926V14.9468H33.2268V15.9965H33.2502C33.4498 15.6463 33.7392 15.3576 34.0875 15.1611C34.4358 14.9646 34.8299 14.8678 35.2281 14.8808C36.8046 14.8808 37.8438 16.147 37.8438 18.1027ZM36.5333 18.1027C36.5333 16.825 35.8834 15.985 34.8917 15.985C33.9176 15.985 33.2623 16.8427 33.2623 18.1027C33.2623 19.3744 33.9176 20.226 34.8917 20.226C35.8834 20.226 36.5333 19.3921 36.5333 18.1027Z" fill="white"/>
<path d="M44.6809 18.1027C44.6809 20.064 43.6477 21.324 42.0886 21.324C41.6937 21.345 41.3009 21.2526 40.9552 21.0573C40.6096 20.862 40.3251 20.5718 40.1342 20.2198H40.1047V23.3458H38.8297V14.9468H40.0638V15.9965H40.0873C40.2869 15.6463 40.5762 15.3576 40.9245 15.1611C41.2728 14.9646 41.667 14.8678 42.0651 14.8808C43.6417 14.8808 44.6809 16.147 44.6809 18.1027ZM43.3703 18.1027C43.3703 16.825 42.7204 15.985 41.7288 15.985C40.7546 15.985 40.0994 16.8427 40.0994 18.1027C40.0994 19.3744 40.7546 20.226 41.7288 20.226C42.7204 20.226 43.3703 19.3921 43.3703 18.1027H43.3703Z" fill="white"/>
<path d="M49.2011 18.8463C49.2956 19.7047 50.1163 20.2683 51.2379 20.2683C52.3126 20.2683 53.0858 19.7047 53.0858 18.9307C53.0858 18.2588 52.6195 17.8565 51.5153 17.5808L50.4111 17.3105C48.8467 16.9266 48.1204 16.1832 48.1204 14.9769C48.1204 13.4834 49.4014 12.4575 51.2205 12.4575C53.0208 12.4575 54.255 13.4834 54.2965 14.9769H53.0094C52.9324 14.1131 52.2295 13.5916 51.2024 13.5916C50.1753 13.5916 49.4724 14.1192 49.4724 14.8871C49.4724 15.4991 49.9214 15.8592 51.0195 16.1349L51.9582 16.369C53.7062 16.789 54.4325 17.5025 54.4325 18.7686C54.4325 20.3881 53.1628 21.4024 51.1434 21.4024C49.254 21.4024 47.9783 20.4119 47.8959 18.8462L49.2011 18.8463Z" fill="white"/>
<path d="M57.1829 13.4534V14.9469H58.3641V15.9728H57.1829V19.452C57.1829 19.9926 57.4194 20.2444 57.9387 20.2444C58.0789 20.2419 58.2189 20.2319 58.3581 20.2145V21.2342C58.1246 21.2785 57.8873 21.2986 57.6499 21.2941C56.3923 21.2941 55.9018 20.8142 55.9018 19.5902V15.9728H54.9987V14.9469H55.9018V13.4534H57.1829Z" fill="white"/>
<path d="M59.0474 18.1031C59.0474 16.1174 60.1985 14.8696 61.9934 14.8696C63.7944 14.8696 64.9401 16.1174 64.9401 18.1031C64.9401 20.0943 63.8004 21.3367 61.9934 21.3367C60.187 21.3367 59.0474 20.0943 59.0474 18.1031ZM63.641 18.1031C63.641 16.741 63.0266 15.937 61.9934 15.937C60.9603 15.937 60.3465 16.7471 60.3465 18.1031C60.3465 19.4707 60.9603 20.2686 61.9934 20.2686C63.0266 20.2686 63.6409 19.4707 63.6409 18.1031H63.641Z" fill="white"/>
<path d="M65.9919 14.9468H67.208V16.021H67.2375C67.3198 15.6855 67.5132 15.389 67.7853 15.1813C68.0574 14.9737 68.3915 14.8675 68.7316 14.8807C68.8785 14.8802 69.0251 14.8964 69.1684 14.9291V16.1408C68.9829 16.0832 68.7894 16.0568 68.5956 16.0625C68.4103 16.0549 68.2257 16.0881 68.0543 16.1598C67.8828 16.2315 67.7287 16.3401 67.6025 16.478C67.4763 16.6159 67.3809 16.78 67.323 16.9589C67.2651 17.1378 67.246 17.3274 67.2669 17.5145V21.2579H65.9919L65.9919 14.9468Z" fill="white"/>
<path d="M75.0473 19.4047C74.8758 20.5504 73.7776 21.3367 72.3726 21.3367C70.5656 21.3367 69.444 20.1066 69.444 18.1331C69.444 16.1535 70.5716 14.8696 72.319 14.8696C74.0376 14.8696 75.1183 16.0691 75.1183 17.9827V18.4265H70.7311V18.5048C70.7109 18.737 70.7395 18.971 70.8151 19.1912C70.8907 19.4114 71.0115 19.6127 71.1695 19.7817C71.3276 19.9508 71.5192 20.0838 71.7317 20.1718C71.9442 20.2599 72.1728 20.301 72.4021 20.2924C72.7034 20.3211 73.0058 20.2502 73.2642 20.0902C73.5227 19.9303 73.7234 19.6899 73.8366 19.4047L75.0473 19.4047ZM70.7371 17.5211H73.8426C73.8541 17.3123 73.8229 17.1033 73.7511 16.9073C73.6793 16.7112 73.5683 16.5324 73.4253 16.382C73.2822 16.2316 73.1101 16.1129 72.9197 16.0332C72.7294 15.9536 72.5248 15.9148 72.319 15.9193C72.1114 15.9181 71.9056 15.9586 71.7134 16.0386C71.5213 16.1186 71.3467 16.2364 71.1996 16.3853C71.0525 16.5343 70.9359 16.7113 70.8566 16.9062C70.7772 17.1012 70.7366 17.3102 70.7371 17.5211V17.5211Z" fill="white"/>
<path d="M25.9123 7.11512C26.0876 7.20641 26.2266 7.34144 26.3295 7.52022C26.4323 7.69519 26.4837 7.88918 26.4837 8.10218C26.4837 8.44452 26.3523 8.72789 26.0895 8.95231C25.8304 9.17673 25.5028 9.28894 25.1066 9.28894C24.7257 9.28894 24.4095 9.17863 24.158 8.95802C23.9066 8.7374 23.7714 8.45403 23.7523 8.10789H24.2437C24.2628 8.3209 24.3523 8.49397 24.5123 8.6271C24.6723 8.75642 24.8704 8.82109 25.1066 8.82109C25.278 8.82109 25.4304 8.79066 25.5637 8.7298C25.6971 8.66513 25.7999 8.57765 25.8723 8.46734C25.9485 8.35323 25.9866 8.22581 25.9866 8.08507C25.9866 7.86826 25.9161 7.69138 25.7752 7.55445C25.6342 7.41752 25.4533 7.34905 25.2323 7.34905H24.7695V6.90972H25.2323C25.4266 6.90972 25.5866 6.85076 25.7123 6.73285C25.8418 6.61113 25.9066 6.45708 25.9066 6.2707C25.9066 6.07671 25.8323 5.92076 25.6837 5.80284C25.5352 5.68112 25.3428 5.62026 25.1066 5.62026C24.8971 5.62026 24.7161 5.67922 24.5637 5.79714C24.4152 5.91125 24.3276 6.06149 24.3009 6.24788H23.8209C23.8476 5.93217 23.9809 5.67352 24.2209 5.47192C24.4647 5.26652 24.7599 5.16382 25.1066 5.16382C25.4799 5.16382 25.7866 5.26652 26.0266 5.47192C26.2704 5.67352 26.3923 5.93407 26.3923 6.25358C26.3923 6.3753 26.3733 6.49321 26.3352 6.60733C26.2971 6.71763 26.2418 6.81653 26.1695 6.90402C26.0971 6.9915 26.0114 7.06187 25.9123 7.11512Z" fill="white"/>
<path d="M29.9191 6.14518H30.3077V9.22618H29.902L29.8506 8.75832C29.7058 8.92949 29.5287 9.06262 29.3191 9.15771C29.1134 9.249 28.8868 9.29465 28.6391 9.29465C28.1858 9.29465 27.8068 9.1425 27.502 8.8382C27.1972 8.5301 27.0449 8.14593 27.0449 7.68568C27.0449 7.22543 27.1972 6.84316 27.502 6.53886C27.8068 6.23076 28.1858 6.07671 28.6391 6.07671C28.8906 6.07671 29.1191 6.12426 29.3249 6.21935C29.5344 6.31444 29.7115 6.44757 29.8563 6.61874L29.9191 6.14518ZM27.862 8.50157C28.0791 8.71839 28.3515 8.82679 28.6791 8.82679C29.0068 8.82679 29.2772 8.71839 29.4906 8.50157C29.7039 8.28476 29.8106 8.0128 29.8106 7.68568C29.8106 7.35856 29.7039 7.08659 29.4906 6.86978C29.2772 6.65297 29.0068 6.54456 28.6791 6.54456C28.3515 6.54456 28.0791 6.65487 27.862 6.87549C27.6487 7.0923 27.542 7.36236 27.542 7.68568C27.542 8.00899 27.6487 8.28096 27.862 8.50157Z" fill="white"/>
<path d="M33.269 7.62862C33.4252 7.68568 33.549 7.78077 33.6404 7.9139C33.7356 8.04703 33.7832 8.19728 33.7832 8.36464C33.7832 8.61188 33.6918 8.81728 33.509 8.98084C33.3299 9.1444 33.1052 9.22618 32.8347 9.22618H31.2861V6.14518H32.8175C33.0728 6.14518 33.2804 6.21935 33.4404 6.36769C33.6004 6.51223 33.6804 6.69862 33.6804 6.92684C33.6804 7.02954 33.6632 7.12653 33.629 7.21782C33.5947 7.30911 33.5471 7.39089 33.4861 7.46316C33.4252 7.53163 33.3528 7.58678 33.269 7.62862ZM33.2004 7.01242C33.2004 6.8869 33.1585 6.788 33.0747 6.71573C32.9909 6.63966 32.8823 6.60162 32.749 6.60162H31.7604V7.41752H32.749C32.8861 7.41752 32.9947 7.38138 33.0747 7.30911C33.1585 7.23304 33.2004 7.13414 33.2004 7.01242ZM32.7775 8.76974C32.8728 8.76974 32.9585 8.75072 33.0347 8.71268C33.1147 8.67084 33.1756 8.61569 33.2175 8.54722C33.2594 8.47875 33.2804 8.40268 33.2804 8.319C33.2804 8.23151 33.2594 8.15353 33.2175 8.08507C33.1756 8.0128 33.1147 7.95764 33.0347 7.91961C32.9585 7.88157 32.8709 7.86255 32.7718 7.86255H31.7604V8.76974H32.7775Z" fill="white"/>
<path d="M37.1959 6.14518H37.5845V9.22618H37.1788L37.1274 8.75832C36.9826 8.92949 36.8054 9.06262 36.5959 9.15771C36.3902 9.249 36.1635 9.29465 35.9159 9.29465C35.4626 9.29465 35.0835 9.1425 34.7788 8.8382C34.474 8.5301 34.3216 8.14593 34.3216 7.68568C34.3216 7.22543 34.474 6.84316 34.7788 6.53886C35.0835 6.23076 35.4626 6.07671 35.9159 6.07671C36.1674 6.07671 36.3959 6.12426 36.6016 6.21935C36.8112 6.31444 36.9883 6.44757 37.1331 6.61874L37.1959 6.14518ZM35.1388 8.50157C35.3559 8.71839 35.6283 8.82679 35.9559 8.82679C36.2835 8.82679 36.554 8.71839 36.7674 8.50157C36.9807 8.28476 37.0874 8.0128 37.0874 7.68568C37.0874 7.35856 36.9807 7.08659 36.7674 6.86978C36.554 6.65297 36.2835 6.54456 35.9559 6.54456C35.6283 6.54456 35.3559 6.65487 35.1388 6.87549C34.9254 7.0923 34.8188 7.36236 34.8188 7.68568C34.8188 8.00899 34.9254 8.28096 35.1388 8.50157Z" fill="white"/>
<path d="M40.6886 6.14518H41.1629V9.22618H40.6886V7.86255H39.0372V9.22618H38.5629V6.14518H39.0372V7.40611H40.6886V6.14518Z" fill="white"/>
<path d="M44.5226 6.14518V6.5845H43.374V9.22618H42.8998V6.5845H41.7512V6.14518H44.5226Z" fill="white"/>
<path d="M47.6368 6.14518H48.0253V9.22618H47.6196L47.5682 8.75832C47.4234 8.92949 47.2463 9.06262 47.0368 9.15771C46.831 9.249 46.6044 9.29465 46.3568 9.29465C45.9034 9.29465 45.5244 9.1425 45.2196 8.8382C44.9149 8.5301 44.7625 8.14593 44.7625 7.68568C44.7625 7.22543 44.9149 6.84316 45.2196 6.53886C45.5244 6.23076 45.9034 6.07671 46.3568 6.07671C46.6082 6.07671 46.8368 6.12426 47.0425 6.21935C47.252 6.31444 47.4291 6.44757 47.5739 6.61874L47.6368 6.14518ZM45.5796 8.50157C45.7968 8.71839 46.0691 8.82679 46.3968 8.82679C46.7244 8.82679 46.9949 8.71839 47.2082 8.50157C47.4215 8.28476 47.5282 8.0128 47.5282 7.68568C47.5282 7.35856 47.4215 7.08659 47.2082 6.86978C46.9949 6.65297 46.7244 6.54456 46.3968 6.54456C46.0691 6.54456 45.7968 6.65487 45.5796 6.87549C45.3663 7.0923 45.2596 7.36236 45.2596 7.68568C45.2596 8.00899 45.3663 8.28096 45.5796 8.50157Z" fill="white"/>
<path d="M52.4951 9.22618L51.4552 7.84543H51.0437V9.22618H50.5752V7.84543H50.1637L49.1237 9.22618H48.5294L49.7466 7.60009L48.6437 6.14518H49.2094L50.1637 7.41181H50.5752V6.14518H51.0437V7.41181H51.4552L52.4094 6.14518H52.9751L51.8723 7.60009L53.0894 9.22618H52.4951Z" fill="white"/>
<path d="M55.8649 6.14518H56.1335V9.22618H55.6764V7.02383L53.8764 9.22618H53.5964V6.14518H54.0592V8.33041L55.8649 6.14518Z" fill="white"/>
<path d="M59.4947 6.14518V6.5845H58.3461V9.22618H57.8718V6.5845H56.7233V6.14518H59.4947Z" fill="white"/>
<path d="M62.3493 6.14518H62.6179V9.22618H62.1607V7.02383L60.3607 9.22618H60.0807V6.14518H60.5436V8.33041L62.3493 6.14518Z" fill="white"/>
<path d="M66.7032 7.60009C66.9851 7.75224 67.126 8.00329 67.126 8.35323C67.126 8.53581 67.0746 8.69937 66.9717 8.84391C66.8727 8.98465 66.7317 9.09495 66.5489 9.17483C66.3698 9.25471 66.1679 9.29465 65.9432 9.29465C65.6156 9.29465 65.3451 9.21097 65.1317 9.0436C64.9222 8.87624 64.8041 8.65182 64.7775 8.37035H65.2175C65.2479 8.51489 65.3279 8.629 65.4575 8.71268C65.587 8.79256 65.7489 8.8325 65.9432 8.8325C66.1489 8.8325 66.3184 8.78495 66.4517 8.68986C66.5851 8.59476 66.6517 8.46924 66.6517 8.31329C66.6517 8.16875 66.5946 8.04893 66.4803 7.95384C66.3698 7.85875 66.2289 7.8112 66.0575 7.8112H65.6003V7.41752H66.0575C66.2175 7.41752 66.3451 7.37758 66.4403 7.2977C66.5394 7.21402 66.5889 7.10751 66.5889 6.97819C66.5889 6.83745 66.5298 6.72334 66.4117 6.63585C66.2936 6.54837 66.1375 6.50463 65.9432 6.50463C65.7717 6.50463 65.6289 6.54266 65.5146 6.61874C65.4003 6.69481 65.3279 6.79751 65.2975 6.92684H64.8575C64.8727 6.75947 64.9279 6.61113 65.0232 6.4818C65.1222 6.35248 65.2517 6.25358 65.4117 6.18511C65.5756 6.11284 65.7565 6.07671 65.9546 6.07671C66.2708 6.07671 66.5317 6.15849 66.7375 6.32205C66.9432 6.48561 67.046 6.69101 67.046 6.93825C67.046 7.23494 66.9317 7.45555 66.7032 7.60009Z" fill="white"/>
</svg>
