<svg width="95" height="28" viewBox="0 0 95 28" fill="none" xmlns="http://www.w3.org/2000/svg">
<g clip-path="url(#clip0_1871_1123)">
<path d="M90.6757 27.7437H3.67533C1.76132 27.7437 0.195312 26.1831 0.195312 24.2757V3.46785C0.195312 1.56047 1.76132 -0.000119328 3.67533 -0.000119328H90.6757C92.5897 -0.000119328 94.1557 1.56047 94.1557 3.46785V24.2757C94.1557 26.1831 92.5897 27.7437 90.6757 27.7437Z" fill="#100F0D"/>
<path d="M90.6757 -0.000119328H3.67533C1.76132 -0.000119328 0.195312 1.56047 0.195312 3.46785V24.2757C0.195312 26.1831 1.76132 27.7437 3.67533 27.7437H90.6757C92.5897 27.7437 94.1557 26.1831 94.1557 24.2757V3.46785C94.1557 1.56047 92.5897 -0.000119328 90.6757 -0.000119328ZM90.6757 0.554479C92.2876 0.554479 93.5989 1.86149 93.5989 3.46785V24.2757C93.5989 25.8821 92.2876 27.189 90.6757 27.189H3.67533C2.06337 27.189 0.752387 25.8821 0.752387 24.2757V3.46785C0.752387 1.86149 2.06337 0.554479 3.67533 0.554479H90.6757Z" fill="#A2A2A1"/>
<path d="M14.6145 13.4723L7.20452 21.3099C7.2048 21.3116 7.20536 21.3129 7.20563 21.3146C7.43288 22.1656 8.21289 22.7922 9.13864 22.7922C9.50871 22.7922 9.85615 22.6925 10.1541 22.5175L10.1778 22.5037L18.5187 17.7073L14.6145 13.4723" fill="#EB3131"/>
<path d="M22.1113 12.1377L22.1042 12.1329L18.5032 10.0526L14.4463 13.6501L18.5173 17.7065L22.0993 15.6469C22.7273 15.3091 23.1536 14.6493 23.1536 13.8885C23.1536 13.1332 22.733 12.4767 22.1113 12.1377" fill="#F6B60B"/>
<path d="M7.20424 6.4346C7.15969 6.59829 7.13628 6.76974 7.13628 6.94779V20.7972C7.13628 20.9749 7.15942 21.147 7.20452 21.3101L14.8695 13.6729L7.20424 6.4346Z" fill="#5778C5"/>
<path d="M14.6692 13.8723L18.5045 10.0513L10.1731 5.23762C9.87029 5.05687 9.51686 4.95255 9.13865 4.95255C8.2129 4.95255 7.43184 5.58033 7.20453 6.43241C7.20425 6.43324 7.20425 6.43379 7.20425 6.43456L14.6692 13.8723Z" fill="#3BAD49"/>
</g>
<path d="M68.4688 18.9385H69.6611V10.9788H68.4688V18.9385ZM79.2073 13.8461L77.8406 17.297H77.7997L76.3813 13.8461H75.0971L77.2241 18.6694L76.0114 21.3523H77.2554L80.5331 13.8461H79.2073ZM72.4461 18.0345C72.0551 18.0345 71.5108 17.8399 71.5108 17.3585C71.5108 16.7441 72.1893 16.5086 72.7746 16.5086C73.2991 16.5086 73.5451 16.6212 73.8639 16.775C73.7713 17.5122 73.1343 18.0345 72.4461 18.0345V18.0345ZM72.5899 13.6719C71.7267 13.6719 70.8328 14.051 70.4629 14.8907L71.521 15.3309C71.7472 14.8907 72.1682 14.7472 72.6104 14.7472C73.2269 14.7472 73.8537 15.116 73.8639 15.7714V15.8532C73.648 15.7303 73.186 15.546 72.6206 15.546C71.4801 15.546 70.3185 16.1705 70.3185 17.338C70.3185 18.4031 71.2539 19.0893 72.3018 19.0893C73.1036 19.0893 73.5451 18.7308 73.823 18.3111H73.8639V18.9254H75.0147V15.8736C75.0147 14.4606 73.9566 13.6719 72.5899 13.6719V13.6719ZM65.2218 14.815H63.5261V12.0866H65.2218C66.1131 12.0866 66.6191 12.822 66.6191 13.4508C66.6191 14.0676 66.1131 14.815 65.2218 14.815ZM65.1911 10.9788H62.3344V18.9385H63.5261V15.9229H65.1911C66.5124 15.9229 67.8114 14.9695 67.8114 13.4508C67.8114 11.9322 66.5124 10.9788 65.1911 10.9788ZM49.6134 18.0359C48.7897 18.0359 48.1001 17.3487 48.1001 16.4048C48.1001 15.451 48.7897 14.7534 49.6134 14.7534C50.4265 14.7534 51.0647 15.451 51.0647 16.4048C51.0647 17.3487 50.4265 18.0359 49.6134 18.0359V18.0359ZM50.9823 14.2918H50.9411C50.6736 13.9739 50.1587 13.6866 49.5103 13.6866C48.1516 13.6866 46.9062 14.8765 46.9062 16.4048C46.9062 17.923 48.1516 19.1027 49.5103 19.1027C50.1587 19.1027 50.6736 18.8154 50.9411 18.4874H50.9823V18.8771C50.9823 19.9133 50.4265 20.4672 49.531 20.4672C48.8002 20.4672 48.3473 19.9439 48.1618 19.5029L47.1223 19.9337C47.4208 20.6517 48.2135 21.5339 49.531 21.5339C50.9309 21.5339 52.1146 20.7131 52.1146 18.713V13.8508H50.9823V14.2918ZM52.938 18.9385H54.1321V10.9785H52.938V18.9385ZM55.8923 16.3126C55.8614 15.2662 56.7055 14.733 57.3127 14.733C57.7865 14.733 58.1878 14.9687 58.3213 15.3075L55.8923 16.3126ZM59.5979 15.41C59.3717 14.8046 58.6817 13.6866 57.2715 13.6866C55.8716 13.6866 54.7086 14.7842 54.7086 16.3947C54.7086 17.9129 55.8614 19.1027 57.4053 19.1027C58.651 19.1027 59.3717 18.3436 59.6701 17.9026L58.7437 17.287C58.4351 17.7385 58.0127 18.0359 57.4053 18.0359C56.7981 18.0359 56.3658 17.7589 56.0878 17.2154L59.7212 15.7176L59.5979 15.41ZM30.6492 14.5176V15.6664H33.4077C33.3254 16.3126 33.1092 16.7844 32.7798 17.1127C32.3785 17.5129 31.7505 17.9539 30.6492 17.9539C28.9507 17.9539 27.6229 16.5896 27.6229 14.8971C27.6229 13.2046 28.9507 11.8401 30.6492 11.8401C31.5653 11.8401 32.2342 12.1993 32.7284 12.6609L33.5415 11.8506C32.8519 11.1939 31.9357 10.6913 30.6492 10.6913C28.3228 10.6913 26.3671 12.5788 26.3671 14.8971C26.3671 17.2154 28.3228 19.1027 30.6492 19.1027C31.905 19.1027 32.8519 18.6926 33.593 17.923C34.3547 17.1639 34.5915 16.0972 34.5915 15.2356C34.5915 14.9687 34.571 14.7228 34.5296 14.5176H30.6492ZM37.7278 18.0359C36.9042 18.0359 36.1939 17.3589 36.1939 16.3947C36.1939 15.4202 36.9042 14.7534 37.7278 14.7534C38.5511 14.7534 39.2614 15.4202 39.2614 16.3947C39.2614 17.3589 38.5511 18.0359 37.7278 18.0359V18.0359ZM37.7278 13.6866C36.2248 13.6866 34.9998 14.8252 34.9998 16.3947C34.9998 17.9539 36.2248 19.1027 37.7278 19.1027C39.2305 19.1027 40.4555 17.9539 40.4555 16.3947C40.4555 14.8252 39.2305 13.6866 37.7278 13.6866ZM43.6783 18.0359C42.855 18.0359 42.1446 17.3589 42.1446 16.3947C42.1446 15.4202 42.855 14.7534 43.6783 14.7534C44.5017 14.7534 45.212 15.4202 45.212 16.3947C45.212 17.3589 44.5017 18.0359 43.6783 18.0359ZM43.6783 13.6866C42.1753 13.6866 40.9506 14.8252 40.9506 16.3947C40.9506 17.9539 42.1753 19.1027 43.6783 19.1027C45.181 19.1027 46.406 17.9539 46.406 16.3947C46.406 14.8252 45.181 13.6866 43.6783 13.6866Z" fill="white"/>
<path d="M27.8228 8.21997C27.565 8.21997 27.3154 8.13962 27.0733 7.98025C26.8312 7.82081 26.6632 7.583 26.5704 7.26738L27.0396 7.07216C27.0995 7.2803 27.1981 7.44171 27.3362 7.55689C27.4739 7.67233 27.6361 7.72976 27.8228 7.72976C28.0313 7.72976 28.2107 7.66456 28.3616 7.53473C28.5129 7.40465 28.5883 7.24299 28.5883 7.04975C28.5883 6.86051 28.5109 6.70108 28.3561 6.571C28.2015 6.44117 28.016 6.37572 27.8001 6.37572H27.4701V5.89671H27.7609C27.9623 5.89671 28.1291 5.841 28.2613 5.72983C28.3936 5.61815 28.4598 5.46992 28.4598 5.28387C28.4598 5.10928 28.3956 4.97175 28.2671 4.87147C28.1383 4.77125 27.9785 4.72101 27.7889 4.72101C27.4609 4.72101 27.2393 4.88669 27.1237 5.21695L26.6485 5.01651C26.7227 4.81232 26.8554 4.63022 27.0454 4.47053C27.2355 4.3109 27.4831 4.2308 27.7889 4.2308C28.1316 4.2308 28.4168 4.33026 28.6444 4.52898C28.8716 4.7277 28.9851 4.9792 28.9851 5.28387C28.9851 5.65119 28.8137 5.92428 28.471 6.10263V6.12529C28.6574 6.20285 28.8112 6.32204 28.9319 6.48141C29.0533 6.6411 29.1137 6.83091 29.1137 7.04975C29.1137 7.38803 28.9889 7.66755 28.7393 7.88843C28.4897 8.10931 28.184 8.21997 27.8228 8.21997" fill="white"/>
<path d="M27.8216 8.22002V8.15635C27.5772 8.15609 27.3408 8.08102 27.1072 7.92726C26.8786 7.77629 26.7204 7.55369 26.6305 7.24953L26.5691 7.26742L26.5939 7.32613L27.0631 7.13091L27.0384 7.0722L26.977 7.08959C27.0394 7.30722 27.1444 7.48136 27.2937 7.60571L27.2942 7.60622L27.2937 7.60571C27.4422 7.73057 27.6219 7.79373 27.8216 7.79348C28.0432 7.79399 28.2403 7.72287 28.4023 7.58304C28.5658 7.44354 28.6519 7.25997 28.6509 7.04979C28.6519 6.84286 28.563 6.66133 28.3961 6.52227C28.2303 6.38277 28.0277 6.31158 27.7988 6.31209H27.5328V5.96043H27.7596C27.9728 5.96069 28.1567 5.90045 28.3013 5.77833C28.4478 5.65602 28.5234 5.48461 28.5224 5.28392C28.5234 5.09386 28.4487 4.93219 28.305 4.82153C28.1645 4.71138 27.9885 4.65713 27.7876 4.65739C27.4367 4.65388 27.1801 4.84713 27.0623 5.19611L27.1224 5.217L27.1474 5.15829L26.672 4.95785L26.6473 5.01656L26.7071 5.03814C26.7773 4.84566 26.9026 4.6733 27.0853 4.51909L27.085 4.51935C27.2625 4.37086 27.4928 4.29503 27.7876 4.29452C28.118 4.29503 28.3853 4.38926 28.601 4.57703V4.57678C28.8153 4.76557 28.919 4.99517 28.9199 5.28392C28.9177 5.63087 28.7657 5.87409 28.44 6.04645L28.4058 6.06441V6.12534V6.16762L28.445 6.18405C28.6217 6.25765 28.7652 6.36908 28.8797 6.51979C28.9921 6.66853 29.0482 6.84235 29.0485 7.04979C29.0475 7.37242 28.9325 7.6301 28.6955 7.84098C28.4575 8.05116 28.1697 8.15584 27.8216 8.15635V8.22002V8.28369C28.1957 8.2842 28.5197 8.16755 28.7805 7.93623C29.0427 7.70491 29.177 7.40374 29.1763 7.04979C29.1765 6.81924 29.1116 6.61402 28.9819 6.44319C28.8543 6.27503 28.6908 6.1482 28.4944 6.06638L28.4697 6.12534H28.5336V6.10267H28.4697L28.4994 6.15915C28.8588 5.97463 29.05 5.67193 29.0477 5.28392C29.0487 4.96358 28.9252 4.68999 28.6853 4.48127L28.6844 4.48057L28.6853 4.48102C28.4455 4.2716 28.1425 4.16692 27.7876 4.16718C27.4711 4.16692 27.2063 4.25071 27.0026 4.42186V4.42212C26.806 4.58747 26.6655 4.779 26.5871 4.99491L26.5664 5.05158L27.0978 5.2757L27.1604 5.30232L27.1829 5.23788C27.2959 4.92602 27.4823 4.78849 27.7876 4.78498C27.9663 4.78524 28.11 4.83121 28.2264 4.92175C28.3397 5.01134 28.3936 5.12448 28.3946 5.28392C28.3936 5.455 28.3369 5.58037 28.2189 5.6811C28.0989 5.78158 27.9496 5.83258 27.7596 5.83309H27.4689H27.405V6.37576V6.43943H27.7988C28.002 6.43994 28.17 6.49967 28.3137 6.61975C28.4562 6.74067 28.5221 6.8782 28.5231 7.04979C28.5221 7.22642 28.4572 7.36618 28.3187 7.48658C28.1787 7.60667 28.0165 7.66563 27.8216 7.66614C27.6481 7.66563 27.503 7.61393 27.3758 7.50817V7.50797C27.2493 7.40222 27.1571 7.25373 27.0998 7.0545L27.08 6.98587L26.5445 7.20872L26.4918 7.23062L26.5077 7.28532C26.6038 7.6124 26.7813 7.86537 27.0369 8.03346C27.2874 8.19862 27.5503 8.28394 27.8216 8.28369V8.22002" fill="white"/>
<path d="M30.5651 6.57091H31.8961L31.2421 4.77116H31.2197L30.5651 6.57091ZM29.4307 8.13062L30.9402 4.14138H31.5217L33.0309 8.13062H32.4606L32.075 7.04966H30.3923L30.0005 8.13062H29.4307" fill="white"/>
<path d="M30.5663 6.57096V6.63463H31.9884L31.2881 4.70754H31.2209H31.176L30.4751 6.63463H30.5663V6.57096L30.6264 6.59261L31.2808 4.79286L31.2209 4.77121V4.83488H31.2433V4.77121L31.1832 4.79286L31.8059 6.50729H30.5663V6.57096L30.6264 6.59261L30.5663 6.57096ZM29.4319 8.13066L29.4918 8.15327L30.9855 4.2051H31.4785L32.9397 8.06699H32.507L32.1214 6.98604H30.3486L29.9568 8.06699H29.4319V8.13066L29.4918 8.15327L29.4319 8.13066V8.19434H30.0017H30.0464L30.4382 7.11338H32.0311L32.4167 8.19434H33.0321H33.1245L31.5671 4.07776H30.9414H30.897L29.3396 8.19434H29.4319V8.13066" fill="white"/>
<path d="M34.0636 7.64041H35.0981C35.2958 7.64041 35.4555 7.5717 35.579 7.43417C35.7018 7.2969 35.7629 7.14669 35.7629 6.98299C35.7629 6.81961 35.7001 6.67011 35.5732 6.53455C35.4467 6.399 35.2807 6.33112 35.0754 6.33112H34.0636V7.64041ZM34.0636 5.85212H34.9975C35.1909 5.85212 35.3469 5.78819 35.4642 5.65983C35.5815 5.53172 35.6401 5.3912 35.6401 5.23902C35.6401 5.08704 35.5835 4.94779 35.4697 4.82114C35.3564 4.69507 35.2059 4.63191 35.0199 4.63191H34.0636V5.85212ZM33.5494 8.13062V4.14138H34.9975C35.3107 4.14138 35.5815 4.24485 35.8104 4.45083C36.04 4.657 36.1543 4.91595 36.1543 5.22782C36.1543 5.41737 36.1052 5.5847 36.0066 5.72974C35.908 5.87447 35.7762 5.98392 35.6122 6.05829V6.08044C35.8099 6.1473 35.9721 6.26248 36.0986 6.42587C36.2255 6.58957 36.2891 6.77854 36.2891 6.9942C36.2891 7.32077 36.1688 7.59214 35.9284 7.80774C35.6876 8.02263 35.4035 8.13062 35.0754 8.13062H33.5494Z" fill="white"/>
<path d="M34.0632 7.64045V7.70412H35.0977C35.3101 7.70482 35.4918 7.62746 35.6263 7.47675C35.7578 7.33024 35.827 7.16291 35.8265 6.98304C35.827 6.80298 35.7554 6.63558 35.6198 6.49111C35.4816 6.34238 35.2941 6.26673 35.075 6.2675H33.9993V7.70412H34.0632V7.64045H34.1271V6.39484H35.075C35.2667 6.39561 35.4112 6.45578 35.5262 6.5779C35.6441 6.70473 35.6984 6.83634 35.6987 6.98304C35.6984 7.13057 35.6453 7.26339 35.531 7.39194V7.39169C35.4184 7.51604 35.2806 7.57602 35.0977 7.57678H34.0632V7.64045H34.1271H34.0632ZM34.0632 5.85217V5.91584H34.9971C35.2043 5.91654 35.382 5.84465 35.511 5.70292C35.637 5.56609 35.7042 5.40793 35.7037 5.23907C35.7042 5.07091 35.6393 4.91422 35.517 4.77866C35.3919 4.63864 35.2197 4.56752 35.0196 4.56829H33.9993V5.91584H34.0632V5.85217H34.1271V4.69563H35.0196C35.1913 4.69633 35.3199 4.75134 35.4219 4.86372C35.5267 4.98114 35.5754 5.10326 35.5759 5.23907C35.5754 5.37463 35.5252 5.49771 35.4167 5.61709C35.3111 5.73125 35.1768 5.78773 34.9971 5.78849H34.0632V5.85217H34.1271H34.0632ZM33.5491 8.13066H33.613V4.2051H34.9971C35.2963 4.20561 35.5487 4.30214 35.7673 4.49812C35.9845 4.6941 36.0893 4.93166 36.09 5.22786C36.0898 5.40672 36.0443 5.55966 35.9533 5.69394C35.8609 5.82924 35.7396 5.93023 35.5854 6.00039L35.548 6.01727V6.08049V6.12596L35.5912 6.14066C35.7778 6.20433 35.9283 6.31105 36.0479 6.46501C36.1659 6.61795 36.2246 6.79107 36.2248 6.99425C36.2241 7.30516 36.113 7.55513 35.8854 7.76028L35.8842 7.7613L35.8854 7.76028C35.655 7.9655 35.3892 8.06648 35.075 8.06699H33.5491V8.13066H33.613H33.5491V8.19433H35.075C35.4174 8.19484 35.7194 8.08017 35.9707 7.85509C36.2236 7.6295 36.3533 7.33648 36.3526 6.99425C36.3529 6.76618 36.2842 6.56122 36.1489 6.38714C36.0151 6.21401 35.8412 6.09068 35.6323 6.02001L35.6119 6.08049H35.6757V6.05834H35.6119L35.6383 6.11628C35.812 6.03771 35.954 5.91979 36.0588 5.76532C36.1652 5.6099 36.2181 5.4283 36.2178 5.22786C36.2186 4.90053 36.095 4.61999 35.8529 4.40363C35.6136 4.18746 35.3246 4.07757 34.9971 4.07776H33.4852V8.19433H33.5491V8.13066Z" fill="white"/>
<path d="M37.6793 6.57091H39.0101L38.3561 4.77116H38.334L37.6793 6.57091ZM36.545 8.13062L38.0544 4.14138H38.6357L40.1451 8.13062H39.5748L39.1892 7.04966H37.5063L37.1147 8.13062H36.545" fill="white"/>
<path d="M37.6786 6.57096V6.63463H39.1005L38.4004 4.70754H38.3333H38.2883L37.5876 6.63463H37.6786V6.57096L37.7388 6.59261L38.3932 4.79286L38.3333 4.77121V4.83488H38.3555V4.77121L38.2956 4.79286L38.9186 6.50729H37.6786V6.57096L37.7388 6.59261L37.6786 6.57096ZM36.5443 8.13066L36.6042 8.15327L38.0979 4.2051H38.5909L40.0522 8.06699H39.6194L39.2338 6.98604H37.461L37.0691 8.06699H36.5443V8.13066L36.6042 8.15327L36.5443 8.13066V8.19434H37.1141H37.1588L37.5506 7.11338H39.1434L39.529 8.19434H40.1445H40.2368L38.6794 4.07776H38.0538H38.0093L36.4519 8.19434H36.5443V8.13066" fill="white"/>
<path d="M40.6599 8.13062V4.14138H41.174V5.85212H43.1757V4.14138H43.6898V8.13062H43.1757V6.33112H41.174V8.13062H40.6599Z" fill="white"/>
<path d="M40.6614 8.13066H40.7253V4.2051H41.1117V5.91584H43.2411V4.2051H43.6275V8.06699H43.2411V6.2675H41.1117V8.06699H40.6614V8.13066H40.7253H40.6614V8.19434H41.1756H41.2395V6.39484H43.1133V8.19434H43.6914H43.7553V4.07776H43.1772H43.1133V5.78849H41.2395V4.07776H40.6614H40.5975V8.19434H40.6614V8.13066Z" fill="white"/>
<path d="M45.8747 8.13062H45.3606V4.63191H44.2424V4.14138H46.9928V4.63191H45.8747V8.13062Z" fill="white"/>
<path d="M45.8734 8.13066V8.06699H45.4231V4.56829H44.305V4.2051H46.9276V4.56829H45.8095V8.13066H45.8734V8.06699V8.13066H45.9373V4.69563H47.0554V4.14143V4.07776H44.1772V4.63196V4.69563H45.2953V8.19434H45.8734H45.9373V8.13066H45.8734Z" fill="white"/>
<path d="M47.9906 6.57091H49.3216L48.6674 4.77116H48.6452L47.9906 6.57091ZM46.8562 8.13062L48.3657 4.14138H48.9469L50.4564 8.13062H49.8862L49.5005 7.04966H47.8179L47.426 8.13062H46.8562Z" fill="white"/>
<path d="M47.9919 6.57096V6.63463H49.4137L48.7137 4.70754H48.6465H48.6016L47.9007 6.63463H47.9919V6.57096L48.052 6.59261L48.7064 4.79286L48.6465 4.77121V4.83488H48.6687V4.77121L48.6088 4.79286L49.2318 6.50729H47.9919V6.57096L48.052 6.59261L47.9919 6.57096ZM46.8575 8.13066L46.9171 8.15327L48.4109 4.2051H48.9043L50.3653 8.06699H49.9326L49.547 6.98604H47.7742L47.3824 8.06699H46.8575V8.13066L46.9171 8.15327L46.8575 8.13066V8.19434H47.4273H47.472L47.8638 7.11338H49.4566L49.8423 8.19434H50.4577H50.5501L48.9927 4.07776H48.367H48.3225L46.7651 8.19434H46.8575V8.13066" fill="white"/>
<path d="M53.5275 6.3033V8.13062H53.0134V6.3033H52.9906L51.4365 8.13062H50.7659V8.10846L52.4543 6.18066L50.8325 4.16379V4.14138H51.459L52.9906 6.08044H53.0134V4.14138H53.5275V6.08044H53.5497L55.0816 4.14138H55.708V4.16379L54.0866 6.18066L55.7747 8.10846V8.13062H55.1041L53.5497 6.3033H53.5275" fill="white"/>
<path d="M53.5291 6.30334H53.4652V8.06699H53.0788V6.23967H52.9922H52.9627L51.4083 8.06699H50.7674V8.13066H50.8313V8.10851H50.7674L50.8153 8.15053L52.5389 6.18243L50.898 4.14169V4.14143H50.8341V4.2051H51.4295L52.9612 6.14417H53.0149H53.0788V4.2051H53.4652V6.14417H53.5512H53.5824L55.1141 4.2051H55.7096V4.14143H55.6457V4.14169L54.0047 6.18243L55.7283 8.15053L55.7762 8.10851H55.7123V8.13066H55.7762V8.06699H55.1351L53.5809 6.23967H53.5291H53.4652V6.30334H53.5291V6.36702H53.5512V6.30334L53.5025 6.34435L55.0759 8.19434H55.7762H55.8401V8.10851V8.08463L54.1712 6.17893L55.7735 4.18626V4.14143V4.07776H55.0832H55.0522L53.5011 6.04089L53.5512 6.08049V6.01682H53.5291V6.08049H53.593V4.07776H53.0149H52.951V6.08049H53.0149V6.01682H52.9922V6.08049L53.0426 6.04089L51.4915 4.07776H50.8341H50.7702V4.16384V4.18626L52.3725 6.17893L50.7035 8.08463V8.13066V8.19434H51.438H51.4677L53.0411 6.34435L52.9922 6.30334V6.36702H53.0149V6.30334H52.951V8.19434H53.5291H53.593V6.30334H53.5291V6.36702V6.30334" fill="white"/>
<path d="M59.351 4.14138V8.13062H58.8366V5.64563L58.859 4.87711H58.8366L56.8015 8.13062H56.2649V4.14138H56.779V6.4761L56.7571 7.24494H56.779L58.7255 4.14138H59.351Z" fill="white"/>
<path d="M59.3516 4.14143H59.2877V8.06699H58.9011V5.64644L58.9235 4.87888L58.9254 4.81349H58.8372H58.8021L56.7666 8.06699H56.3294V4.2051H56.7157V6.4757L56.694 7.24321L56.692 7.30866H56.7796H56.8151L58.7612 4.2051H59.3516V4.14143H59.2877H59.3516V4.07776H58.7261H58.6903L56.7255 7.21112L56.7796 7.24499V7.18132H56.7577V7.24499L56.8216 7.24671L56.8435 6.47793V6.47692V4.07776H56.2655H56.2016V8.19434H56.8021H56.8376L58.8915 4.91072L58.8372 4.87716V4.94083H58.8596V4.87716L58.7963 4.87544L58.7733 5.64371V5.64498V8.19434H59.3516H59.4155V4.07776H59.3516V4.14143" fill="white"/>
<path d="M61.5355 8.13062H61.0212V4.63191H59.9031V4.14138H62.6537V4.63191H61.5355V8.13062Z" fill="white"/>
<path d="M61.5361 8.13066V8.06699H61.0857V4.56829H59.9676V4.2051H62.5904V4.56829H61.4722V8.13066H61.5361V8.06699V8.13066H61.6V4.69563H62.7181V4.14143V4.07776H59.8398V4.63196V4.69563H60.9579V8.19434H61.5361H61.6V8.13066H61.5361Z" fill="white"/>
<path d="M66.3108 4.14138V8.13062H65.7964V5.64563L65.8188 4.87711H65.7964L63.7608 8.13062H63.2247V4.14138H63.7384V6.4761L63.7167 7.24494H63.7384L65.6846 4.14138H66.3108Z" fill="white"/>
<path d="M66.3094 4.14143H66.2455V8.06699H65.859V5.64644L65.8813 4.87888L65.8833 4.81349H65.7951H65.7593L63.7243 8.06699H63.2873V4.2051H63.6732V6.4757L63.6515 7.24321L63.6496 7.30866H63.7371H63.7729L65.7191 4.2051H66.3094V4.14143H66.2455H66.3094V4.07776H65.6833H65.6481L63.6828 7.21112L63.7371 7.24499V7.18132H63.7154V7.24499L63.7793 7.24671L63.801 6.47793V6.47692V4.07776H63.2234H63.1595V8.19434H63.7595H63.7952L65.8494 4.91072L65.7951 4.87716V4.94083H65.8175V4.87716L65.7536 4.87544L65.7312 5.64371V5.64498V8.19434H66.3094H66.3733V4.07776H66.3094V4.14143" fill="white"/>
<path d="M69.3977 8.21997C69.1395 8.21997 68.8903 8.13962 68.6482 7.98025C68.406 7.82081 68.238 7.583 68.1454 7.26738L68.6143 7.07216C68.6744 7.2803 68.7728 7.44171 68.9108 7.55689C69.0488 7.67233 69.2111 7.72976 69.3977 7.72976C69.6059 7.72976 69.7855 7.66456 69.9363 7.53473C70.0877 7.40465 70.1631 7.24299 70.1631 7.04975C70.1631 6.86051 70.0858 6.70108 69.9312 6.571C69.7759 6.44117 69.5906 6.37572 69.3753 6.37572H69.045V5.89671H69.3357C69.5369 5.89671 69.7037 5.841 69.836 5.72983C69.9682 5.61815 70.0347 5.46992 70.0347 5.28387C70.0347 5.10928 69.9701 4.97175 69.8417 4.87147C69.7133 4.77125 69.5536 4.72101 69.3638 4.72101C69.0354 4.72101 68.8143 4.88669 68.6987 5.21695L68.2233 5.01651C68.2974 4.81232 68.4303 4.63022 68.6201 4.47053C68.8105 4.3109 69.0577 4.2308 69.3638 4.2308C69.7063 4.2308 69.9912 4.33026 70.2193 4.52898C70.4461 4.7277 70.5599 4.9792 70.5599 5.28387C70.5599 5.65119 70.3886 5.92428 70.0455 6.10263V6.12529C70.2321 6.20285 70.3861 6.32204 70.5068 6.48141C70.6282 6.6411 70.6883 6.83091 70.6883 7.04975C70.6883 7.38803 70.5637 7.66755 70.3139 7.88843C70.0647 8.10931 69.7586 8.21997 69.3977 8.21997" fill="white"/>
<path d="M69.3954 8.22002V8.15635C69.1513 8.15609 68.9149 8.08102 68.681 7.92726C68.4523 7.77629 68.2945 7.55369 68.2044 7.24953L68.1431 7.26742L68.1673 7.32613L68.6369 7.13091L68.612 7.0722L68.5507 7.08959C68.6133 7.30722 68.7181 7.48136 68.8676 7.60571C69.0158 7.73057 69.1954 7.79373 69.3954 7.79348C69.6171 7.79399 69.8145 7.72287 69.9761 7.58304C70.1397 7.44354 70.2253 7.25997 70.2247 7.04979C70.2253 6.84286 70.1365 6.66133 69.9698 6.52227C69.8043 6.38277 69.6017 6.31158 69.373 6.31209H69.1066V5.96043H69.3334C69.5461 5.96069 69.7302 5.90045 69.8752 5.77833C70.0215 5.65602 70.0969 5.48461 70.0963 5.28392C70.0975 5.09386 70.0228 4.93219 69.879 4.82153L69.8771 4.82032L69.879 4.82153C69.7378 4.71138 69.5621 4.65713 69.3615 4.65739C69.0101 4.65388 68.7539 4.84713 68.6363 5.19611L68.6964 5.217L68.7213 5.15829L68.2459 4.95785L68.221 5.01656L68.2811 5.03814C68.3513 4.84566 68.4766 4.6733 68.6587 4.51909V4.51935C68.8363 4.37086 69.0663 4.29503 69.3615 4.29452C69.6918 4.29503 69.9589 4.38926 70.1748 4.57703V4.57678C70.3889 4.76557 70.493 4.99517 70.4937 5.28392C70.4918 5.63087 70.3397 5.87409 70.0138 6.04645L69.9793 6.06441V6.12534V6.16762L70.0189 6.18405C70.1953 6.25765 70.3391 6.36908 70.4534 6.51979C70.5659 6.66853 70.6221 6.84235 70.6221 7.04979C70.6215 7.37242 70.5065 7.6301 70.2694 7.84098C70.0311 8.05116 69.7436 8.15584 69.3954 8.15635V8.22002V8.28369C69.7691 8.2842 70.0931 8.16755 70.3544 7.93623C70.6163 7.70491 70.7512 7.40374 70.7499 7.04979C70.7505 6.81924 70.6854 6.61402 70.5557 6.44319C70.4279 6.27503 70.2649 6.1482 70.0681 6.06638L70.0432 6.12534H70.1071V6.10267H70.0432L70.0733 6.15915C70.4323 5.97463 70.624 5.67193 70.6215 5.28392C70.6221 4.96358 70.4988 4.68999 70.2592 4.48127V4.48102C70.0196 4.2716 69.7161 4.16692 69.3615 4.16718C69.0452 4.16692 68.7801 4.25071 68.5762 4.42186V4.42212C68.3801 4.58747 68.2395 4.779 68.1609 4.99491L68.1399 5.05158L68.6714 5.2757L68.7341 5.30232L68.7564 5.23788C68.8695 4.92602 69.0561 4.78849 69.3615 4.78498C69.5404 4.78524 69.6835 4.83121 69.7998 4.92175C69.9135 5.01134 69.9672 5.12448 69.9685 5.28392C69.9672 5.455 69.9103 5.58037 69.7928 5.6811C69.6726 5.78158 69.5231 5.83258 69.3334 5.83309H69.0427H68.9788V6.37576V6.43943H69.373C69.5755 6.43994 69.7436 6.49967 69.8873 6.61975C70.0298 6.74067 70.0963 6.8782 70.0969 7.04979C70.0963 7.22642 70.0311 7.36618 69.8924 7.48658C69.7525 7.60667 69.5902 7.66563 69.3954 7.66614C69.2216 7.66563 69.0765 7.61393 68.9494 7.50817V7.50797C68.8229 7.40222 68.7309 7.25373 68.6734 7.0545L68.6536 6.98587L68.1181 7.20872L68.0657 7.23062L68.0817 7.28532C68.1776 7.6124 68.3552 7.86537 68.6107 8.03346C68.8612 8.19862 69.1238 8.28394 69.3954 8.28369V8.22002" fill="white"/>
<defs>
<clipPath id="clip0_1871_1123">
<rect width="94.1715" height="27.8832" fill="white" transform="translate(0.195312)"/>
</clipPath>
</defs>
</svg>
