<svg width="50" height="50" viewBox="0 0 50 50" fill="none" xmlns="http://www.w3.org/2000/svg">
<circle cx="25" cy="25" r="25" fill="#FF7C32"/>
<path d="M12.5782 23.0319L33.6531 13.2842L32.5205 22.585L11.4456 32.3327L12.5782 23.0319Z" stroke="white" stroke-width="0.9713" stroke-miterlimit="2.6131" stroke-linecap="round" stroke-linejoin="round"/>
<path d="M18.7423 29.0149L25.1487 26.0105L30.2513 31.4538L23.845 34.4582L18.7423 29.0149Z" stroke="white" stroke-width="0.9713" stroke-miterlimit="2.6131" stroke-linecap="round" stroke-linejoin="round"/>
<path d="M19.8277 19.649L26.297 16.7262L25.2687 25.9706L18.795 28.9966L19.8277 19.649Z" stroke="white" stroke-width="0.9713" stroke-miterlimit="2.6131" stroke-linecap="round" stroke-linejoin="round"/>
<path d="M16.9959 23.7868C16.7848 23.7742 16.3627 23.749 16.0374 23.9363C15.1757 24.2983 14.5074 25.0853 14.3756 25.6976C14.2085 27.1346 16.9344 25.2302 16.6662 26.5578C16.5343 27.1701 15.8661 27.9571 15.0044 28.3191C14.5735 28.5001 14.2526 28.5843 14.046 28.4686" stroke="white" stroke-width="0.9713" stroke-miterlimit="2.6131" stroke-linecap="round" stroke-linejoin="round"/>
<path d="M15.9989 22.9907L15.8522 23.8124M14.989 28.3289L14.8423 29.1507" stroke="white" stroke-width="0.9713" stroke-miterlimit="2.6131" stroke-linecap="round" stroke-linejoin="round"/>
<path d="M35.2826 15.3445L34.1723 24.1289L26.686 27.5893M13.1035 33.8733L19.9493 30.6831M36.7938 16.7734L35.6835 25.5579L28.0883 29.1146M14.7193 35.3085L21.3471 32.3111M38.4051 18.3113L37.2948 27.0958L29.6996 30.6525M16.2261 36.8401L22.6448 33.8301" stroke="white" stroke-width="0.9713" stroke-miterlimit="2.6131" stroke-linecap="round" stroke-linejoin="round"/>
<path d="M30.635 17.2305C30.424 17.2179 30.002 17.1927 29.6766 17.38C28.8149 17.7421 28.1467 18.529 28.0148 19.1413C27.8478 20.5784 30.5735 18.6739 30.3054 20.0016C30.1735 20.6138 29.5052 21.4008 28.6435 21.7628C28.2127 21.9438 27.8918 22.028 27.6851 21.9123" stroke="white" stroke-width="0.9713" stroke-miterlimit="2.6131" stroke-linecap="round" stroke-linejoin="round"/>
<path d="M29.7416 16.4398L29.5949 17.2615M28.7317 21.778L28.585 22.5998" stroke="white" stroke-width="0.9713" stroke-miterlimit="2.6131" stroke-linecap="round" stroke-linejoin="round"/>
</svg>
