<svg width="28" height="27" viewBox="0 0 28 27" fill="none" xmlns="http://www.w3.org/2000/svg">
<rect x="0.499382" width="27" height="27" rx="10" fill="#FF8A37"/>
<path fill-rule="evenodd" clip-rule="evenodd" d="M11.3196 7.039C12.0127 7.00709 12.2337 7 13.9994 7C15.765 7 15.986 7.00768 16.6786 7.039C17.3711 7.07032 17.8438 7.18082 18.2575 7.34095C18.6906 7.50464 19.0836 7.7605 19.4086 8.09141C19.7395 8.41582 19.9947 8.80818 20.1578 9.24191C20.3186 9.65555 20.4285 10.1283 20.4604 10.8196C20.4923 11.514 20.4994 11.735 20.4994 13.5C20.4994 15.2656 20.4917 15.4866 20.4604 16.1798C20.4291 16.8711 20.3186 17.3439 20.1578 17.7575C19.9947 18.1913 19.739 18.5843 19.4086 18.9092C19.0836 19.2401 18.6906 19.4954 18.2575 19.6585C17.8438 19.8192 17.3711 19.9291 16.6797 19.961C15.986 19.9929 15.765 20 13.9994 20C12.2337 20 12.0127 19.9923 11.3196 19.961C10.6282 19.9297 10.1555 19.8192 9.74188 19.6585C9.30811 19.4953 8.91509 19.2396 8.5902 18.9092C8.25952 18.5846 8.00361 18.1917 7.84034 17.7581C7.6802 17.3445 7.57029 16.8717 7.53838 16.1804C7.50647 15.486 7.49938 15.265 7.49938 13.5C7.49938 11.7344 7.50706 11.5134 7.53838 10.8208C7.5697 10.1283 7.6802 9.65555 7.84034 9.24191C8.00385 8.80823 8.25995 8.41541 8.59079 8.09082C8.91522 7.76021 9.30784 7.50431 9.74129 7.34095C10.1549 7.18082 10.6277 7.07091 11.319 7.039H11.3196ZM16.626 8.209C15.9405 8.17768 15.7349 8.17118 13.9994 8.17118C12.2639 8.17118 12.0582 8.17768 11.3728 8.209C10.7387 8.23795 10.3948 8.34373 10.1656 8.43295C9.86243 8.55114 9.64556 8.69118 9.41806 8.91868C9.20241 9.12849 9.03644 9.38389 8.93234 9.66618C8.84311 9.89545 8.73734 10.2394 8.70838 10.8734C8.67706 11.5589 8.67056 11.7645 8.67056 13.5C8.67056 15.2355 8.67706 15.4411 8.70838 16.1266C8.73734 16.7606 8.84311 17.1045 8.93234 17.3338C9.03634 17.6157 9.20238 17.8715 9.41806 18.0813C9.62784 18.297 9.8837 18.463 10.1656 18.567C10.3948 18.6563 10.7387 18.762 11.3728 18.791C12.0582 18.8223 12.2633 18.8288 13.9994 18.8288C15.7355 18.8288 15.9405 18.8223 16.626 18.791C17.26 18.762 17.6039 18.6563 17.8332 18.567C18.1363 18.4489 18.3532 18.3088 18.5807 18.0813C18.7964 17.8715 18.9624 17.6157 19.0664 17.3338C19.1557 17.1045 19.2614 16.7606 19.2904 16.1266C19.3217 15.4411 19.3282 15.2355 19.3282 13.5C19.3282 11.7645 19.3217 11.5589 19.2904 10.8734C19.2614 10.2394 19.1557 9.89545 19.0664 9.66618C18.9482 9.36305 18.8082 9.14618 18.5807 8.91868C18.3709 8.70304 18.1155 8.53708 17.8332 8.43295C17.6039 8.34373 17.26 8.23795 16.626 8.209V8.209ZM13.1692 15.5038C13.6328 15.6968 14.1491 15.7228 14.6298 15.5775C15.1106 15.4321 15.5259 15.1244 15.805 14.7068C16.084 14.2892 16.2094 13.7877 16.1598 13.2879C16.1101 12.7882 15.8885 12.3211 15.5328 11.9666C15.306 11.74 15.0318 11.5664 14.7299 11.4585C14.4281 11.3506 14.106 11.3109 13.7869 11.3424C13.4679 11.3738 13.1598 11.4756 12.8848 11.6405C12.6098 11.8053 12.3748 12.0291 12.1967 12.2956C12.0186 12.5622 11.9018 12.8649 11.8547 13.1821C11.8076 13.4992 11.8314 13.8228 11.9244 14.1296C12.0174 14.4364 12.1773 14.7188 12.3925 14.9564C12.6078 15.194 12.873 15.381 13.1692 15.5038ZM11.6369 11.1375C11.9472 10.8273 12.3155 10.5812 12.7208 10.4133C13.1262 10.2454 13.5606 10.159 13.9994 10.159C14.4381 10.159 14.8726 10.2454 15.2779 10.4133C15.6833 10.5812 16.0516 10.8273 16.3618 11.1375C16.6721 11.4478 16.9182 11.8161 17.0861 12.2214C17.254 12.6268 17.3404 13.0613 17.3404 13.5C17.3404 13.9387 17.254 14.3732 17.0861 14.7786C16.9182 15.1839 16.6721 15.5522 16.3618 15.8625C15.7353 16.489 14.8855 16.841 13.9994 16.841C13.1133 16.841 12.2635 16.489 11.6369 15.8625C11.0104 15.2359 10.6584 14.3861 10.6584 13.5C10.6584 12.6139 11.0104 11.7641 11.6369 11.1375V11.1375ZM18.0814 10.6565C18.1583 10.584 18.2198 10.4968 18.2624 10.4001C18.3049 10.3033 18.3277 10.199 18.3292 10.0934C18.3308 9.98769 18.3111 9.88278 18.2713 9.78484C18.2316 9.68691 18.1726 9.59794 18.0979 9.5232C18.0232 9.44847 17.9342 9.38949 17.8363 9.34976C17.7383 9.31003 17.6334 9.29035 17.5277 9.29189C17.4221 9.29343 17.3178 9.31616 17.221 9.35873C17.1243 9.4013 17.0371 9.46285 16.9646 9.53973C16.8235 9.68924 16.7463 9.88784 16.7493 10.0934C16.7523 10.2989 16.8353 10.4952 16.9806 10.6405C17.126 10.7858 17.3222 10.8688 17.5277 10.8718C17.7333 10.8748 17.9319 10.7976 18.0814 10.6565V10.6565Z" fill="white"/>
</svg>
