<svg width="169" height="15" viewBox="0 0 169 15" fill="none" xmlns="http://www.w3.org/2000/svg">
<path d="M64.1313 5.35C64.6812 5.04 65.3282 4.81 66.0722 4.66C66.8162 4.51 67.5711 4.44 68.3798 4.44C69.1346 4.44 69.7492 4.53 70.2021 4.72C70.655 4.91 71.0108 5.15 71.2481 5.45C71.4853 5.75 71.647 6.09 71.7333 6.45C71.8196 6.81 71.8411 7.18 71.8411 7.54C71.8411 8.35 71.8304 9.14 71.7764 9.92C71.7225 10.7 71.7117 11.42 71.7117 12.12C71.7117 12.63 71.7225 13.09 71.7764 13.54C71.8196 13.99 71.9058 14.39 72.0137 14.78H70.7197L70.2668 13.36H70.159C70.0296 13.55 69.8678 13.73 69.663 13.91C69.4689 14.09 69.2316 14.25 68.9513 14.4C68.6817 14.53 68.3582 14.65 67.9808 14.76C67.6142 14.85 67.2044 14.91 66.7408 14.91C66.2771 14.91 65.835 14.84 65.436 14.7C65.037 14.57 64.692 14.37 64.39 14.12C64.0989 13.87 63.8725 13.57 63.6999 13.22C63.5274 12.86 63.4411 12.47 63.4411 12.02C63.4411 11.42 63.5705 10.93 63.8401 10.52C64.0989 10.12 64.4655 9.8 64.9508 9.56C65.4144 9.32 65.9967 9.16 66.6653 9.05C67.323 8.95 68.0671 8.9 68.865 8.9H69.4581C69.6522 8.9 69.8571 8.91 70.0512 8.94C70.0943 8.54 70.1158 8.16 70.1158 7.85C70.1158 7.1 69.9541 6.58 69.6306 6.29C69.3071 5.99 68.7248 5.84 67.873 5.84C67.6357 5.84 67.3554 5.85 67.0858 5.9C66.7947 5.93 66.5035 5.99 66.2124 6.05C65.9105 6.11 65.6301 6.18 65.3605 6.27C65.0909 6.36 64.8645 6.46 64.6488 6.57L64.1313 5.35ZM67.226 13.5C67.625 13.5 68.0024 13.46 68.3259 13.35C68.6494 13.25 68.9189 13.13 69.1454 12.96C69.3718 12.81 69.5659 12.63 69.7277 12.44C69.8894 12.25 69.9972 12.07 70.0619 11.89V10.2C69.8571 10.19 69.6414 10.17 69.4365 10.17C69.2316 10.17 69.016 10.16 68.8111 10.16C68.3582 10.16 67.9269 10.19 67.4848 10.23C67.0427 10.27 66.6761 10.36 66.3418 10.5C66.0183 10.63 65.7487 10.8 65.5546 11.02C65.3605 11.24 65.2635 11.53 65.2635 11.86C65.2635 12.34 65.436 12.73 65.8134 13.03C66.1908 13.34 66.6653 13.5 67.226 13.5ZM96.3295 9.67C96.3295 7.95 96.7284 6.63 97.5695 5.71C98.389 4.8 99.5859 4.33 101.139 4.33C101.958 4.33 102.67 4.45 103.274 4.7C103.888 4.95 104.384 5.31 104.773 5.78C105.172 6.24 105.463 6.81 105.646 7.47C105.84 8.13 105.937 8.86 105.937 9.66C105.937 11.38 105.517 12.7 104.697 13.62C103.878 14.53 102.681 15 101.128 15C100.308 15 99.5967 14.88 98.9929 14.63C98.3782 14.38 97.8822 14.02 97.494 13.55C97.1058 13.09 96.8147 12.52 96.6206 11.86C96.4265 11.21 96.3295 10.47 96.3295 9.67ZM98.1518 9.67C98.1518 10.18 98.1949 10.67 98.3135 11.15C98.4214 11.63 98.5831 12.03 98.8311 12.39C99.0576 12.73 99.3811 13.02 99.7477 13.24C100.114 13.45 100.589 13.57 101.117 13.57C103.101 13.58 104.104 12.28 104.104 9.66C104.104 9.14 104.061 8.63 103.942 8.16C103.834 7.68 103.651 7.28 103.425 6.92C103.198 6.56 102.896 6.29 102.508 6.08C102.142 5.87 101.667 5.77 101.139 5.77C99.1438 5.75 98.1518 7.06 98.1518 9.67ZM124.948 6.4C125.433 5.76 125.961 5.29 126.544 5.02C127.126 4.75 127.848 4.63 128.743 4.63C130.08 4.63 131.116 5.03 131.849 5.84C132.571 6.65 132.927 7.85 132.927 9.44C132.927 11.27 132.507 12.65 131.666 13.59C130.824 14.52 129.649 15 128.139 15C126.522 15 125.325 14.49 124.516 13.46C123.708 12.43 123.309 10.81 123.309 8.6C123.309 7.43 123.373 6.44 123.481 5.62C123.611 4.8 123.783 4.09 124.031 3.52C124.268 2.95 124.56 2.5 124.905 2.16C125.25 1.82 125.627 1.55 126.069 1.35C126.5 1.16 126.975 1.02 127.471 0.93C127.989 0.86 128.538 0.78 129.121 0.72C129.876 0.65 130.479 0.57 130.911 0.48C131.342 0.39 131.687 0.24 131.946 0L132.14 1.47C132 1.59 131.838 1.69 131.655 1.77C131.471 1.85 131.267 1.92 131.029 1.98C130.792 2.04 130.479 2.08 130.145 2.13C129.811 2.18 129.401 2.2 128.948 2.23C128.323 2.27 127.773 2.33 127.298 2.44C126.835 2.54 126.414 2.74 126.069 3.02C125.735 3.3 125.454 3.72 125.26 4.26C125.066 4.8 124.926 5.5 124.861 6.39C124.861 6.4 124.948 6.4 124.948 6.4ZM125.142 9.7C125.142 10.21 125.206 10.7 125.314 11.18C125.422 11.66 125.605 12.08 125.843 12.42C126.08 12.78 126.393 13.06 126.781 13.26C127.169 13.47 127.6 13.56 128.118 13.56C129.121 13.56 129.876 13.23 130.361 12.56C130.846 11.89 131.083 10.9 131.083 9.58C131.083 9.07 131.04 8.59 130.943 8.16C130.846 7.73 130.684 7.35 130.458 7.04C130.231 6.73 129.962 6.49 129.617 6.31C129.282 6.15 128.873 6.06 128.409 6.06C127.266 6.05 126.436 6.36 125.907 6.99C125.401 7.61 125.142 8.51 125.142 9.7ZM136.065 5.35C136.615 5.04 137.262 4.81 138.006 4.66C138.75 4.51 139.526 4.44 140.314 4.44C141.068 4.44 141.683 4.53 142.136 4.72C142.589 4.91 142.945 5.15 143.182 5.45C143.419 5.75 143.581 6.09 143.667 6.45C143.753 6.81 143.775 7.18 143.775 7.54C143.775 8.35 143.764 9.14 143.71 9.92C143.667 10.7 143.646 11.42 143.646 12.12C143.646 12.63 143.656 13.09 143.71 13.54C143.753 13.99 143.84 14.39 143.947 14.78H142.653L142.201 13.36H142.093C141.963 13.55 141.802 13.73 141.597 13.91C141.403 14.09 141.165 14.25 140.885 14.4C140.615 14.53 140.292 14.65 139.915 14.76C139.548 14.85 139.138 14.91 138.675 14.91C138.211 14.91 137.769 14.84 137.37 14.7C136.971 14.57 136.626 14.37 136.324 14.12C136.033 13.87 135.806 13.57 135.634 13.22C135.461 12.86 135.375 12.47 135.375 12.02C135.375 11.42 135.504 10.93 135.763 10.52C136.022 10.12 136.389 9.8 136.874 9.56C137.337 9.32 137.92 9.16 138.588 9.05C139.246 8.95 139.99 8.9 140.788 8.9H141.381C141.575 8.9 141.78 8.91 141.974 8.94C142.017 8.54 142.039 8.16 142.039 7.85C142.039 7.1 141.877 6.58 141.554 6.29C141.23 5.99 140.648 5.84 139.796 5.84C139.559 5.84 139.278 5.85 139.009 5.9C138.718 5.93 138.427 5.99 138.135 6.05C137.833 6.11 137.553 6.18 137.283 6.27C137.014 6.36 136.766 6.46 136.572 6.57L136.065 5.35ZM139.181 13.5C139.58 13.5 139.958 13.46 140.281 13.35C140.605 13.25 140.874 13.13 141.101 12.96C141.327 12.81 141.532 12.63 141.683 12.44C141.823 12.25 141.942 12.07 142.017 11.89V10.2C141.812 10.19 141.597 10.17 141.392 10.17C141.187 10.17 140.971 10.16 140.766 10.16C140.314 10.16 139.882 10.19 139.44 10.23C138.998 10.27 138.631 10.36 138.297 10.5C137.974 10.63 137.704 10.8 137.51 11.02C137.316 11.24 137.219 11.53 137.219 11.86C137.219 12.34 137.391 12.73 137.769 13.03C138.135 13.34 138.599 13.5 139.181 13.5ZM62.007 6.01H58.578V14.76H56.8203V6.01H53.3913V4.59H61.9962V6.01H62.007V6.01ZM82.6242 12.84C82.3654 13.03 82.0311 13.2 81.6106 13.35C81.1901 13.5 80.7264 13.57 80.2088 13.57C79.5942 13.57 79.0766 13.47 78.656 13.24C78.2355 13.03 77.9012 12.73 77.6532 12.37C77.3944 12.01 77.2219 11.59 77.1033 11.13C76.9954 10.67 76.9415 10.17 76.9415 9.66C76.9415 7.05 77.9767 5.75 80.0578 5.75C80.5215 5.75 80.9636 5.79 81.3626 5.9C81.7615 6 82.139 6.14 82.4732 6.32L82.9693 4.91C82.5703 4.72 82.1282 4.58 81.6429 4.48C81.1577 4.38 80.5646 4.33 79.8529 4.33C78.3218 4.33 77.1356 4.79 76.3269 5.71C75.5074 6.62 75.0976 7.94 75.0976 9.67C75.0976 10.46 75.1731 11.2 75.3564 11.86C75.5289 12.52 75.7877 13.07 76.1651 13.55C76.5318 14.01 77.017 14.37 77.5993 14.63C78.1816 14.88 78.904 15 79.7451 15C80.4029 15 81.0391 14.93 81.6322 14.76C82.2252 14.6 82.7428 14.37 83.1849 14.07L82.6242 12.84ZM92.577 14.76H94.7444L91.0781 10.16L89.9351 9.35L90.8517 8.68L94.2483 4.59H92.3397L88.8352 8.9L87.8971 9.18V4.58H86.1395V14.74H87.8971V10.17H88.8999L92.577 14.76ZM118.305 14.76H120.02V4.59H118.262L115.383 9.1L114.725 10.31H114.682L114.057 9.13L110.984 4.57H109.258V14.73H110.887V8.69L110.714 6.77H110.79L111.512 8.33L114.272 12.32H114.887L117.54 8.33L118.327 6.77H118.435L118.305 8.7V14.76V14.76ZM154.375 14.76H156.132V4.59H154.375V8.85H149.414V4.59H147.657V14.75H149.414V10.25H154.375V14.76ZM166.473 14.76H168.641L164.974 10.16L163.831 9.35L164.748 8.68L168.145 4.59H166.236L162.721 8.9L161.783 9.18V4.58H160.025V14.74H161.783V10.17H162.785L166.473 14.76ZM0.640625 10.35C0.640625 9.83 0.672974 9.3 0.705323 8.81H36.9687L32.8173 14.85H1.13665C0.83472 13.46 0.640625 11.96 0.640625 10.35ZM1.75128 4.36C1.33074 5.48 0.9749 6.71 0.802371 8.06H37.4971L40.0527 4.36H1.75128V4.36Z" fill="#959596"/>
</svg>
