<svg width="109" height="9" viewBox="0 0 109 9" fill="none" xmlns="http://www.w3.org/2000/svg">
<path d="M41.1933 3.21C41.5501 3.024 41.9699 2.886 42.4526 2.796C42.9354 2.706 43.4251 2.664 43.9498 2.664C44.4395 2.664 44.8383 2.718 45.1322 2.832C45.426 2.946 45.6569 3.09 45.8108 3.27C45.9647 3.45 46.0696 3.654 46.1256 3.87C46.1816 4.086 46.1956 4.308 46.1956 4.524C46.1956 5.01 46.1886 5.484 46.1536 5.952C46.1186 6.42 46.1116 6.852 46.1116 7.272C46.1116 7.578 46.1186 7.854 46.1536 8.124C46.1816 8.394 46.2375 8.634 46.3075 8.868H45.468L45.1741 8.016H45.1042C45.0202 8.13 44.9153 8.238 44.7823 8.346C44.6564 8.454 44.5025 8.55 44.3206 8.64C44.1457 8.718 43.9358 8.79 43.6909 8.856C43.4531 8.91 43.1872 8.946 42.8864 8.946C42.5856 8.946 42.2987 8.904 42.0399 8.82C41.781 8.742 41.5571 8.622 41.3612 8.472C41.1723 8.322 41.0254 8.142 40.9135 7.932C40.8015 7.716 40.7456 7.482 40.7456 7.212C40.7456 6.852 40.8295 6.558 41.0044 6.312C41.1723 6.072 41.4102 5.88 41.725 5.736C42.0259 5.592 42.4037 5.496 42.8374 5.43C43.2642 5.37 43.7469 5.34 44.2646 5.34H44.6494C44.7754 5.34 44.9083 5.346 45.0342 5.364C45.0622 5.124 45.0762 4.896 45.0762 4.71C45.0762 4.26 44.9712 3.948 44.7614 3.774C44.5515 3.594 44.1737 3.504 43.621 3.504C43.4671 3.504 43.2852 3.51 43.1103 3.54C42.9214 3.558 42.7325 3.594 42.5436 3.63C42.3477 3.666 42.1658 3.708 41.9909 3.762C41.816 3.816 41.6691 3.876 41.5291 3.942L41.1933 3.21ZM43.2012 8.1C43.4601 8.1 43.7049 8.076 43.9148 8.01C44.1247 7.95 44.2996 7.878 44.4465 7.776C44.5935 7.686 44.7194 7.578 44.8243 7.464C44.9293 7.35 44.9992 7.242 45.0412 7.134V6.12C44.9083 6.114 44.7684 6.102 44.6354 6.102C44.5025 6.102 44.3626 6.096 44.2297 6.096C43.9358 6.096 43.656 6.114 43.3691 6.138C43.0823 6.162 42.8444 6.216 42.6275 6.3C42.4176 6.378 42.2427 6.48 42.1168 6.612C41.9909 6.744 41.9279 6.918 41.9279 7.116C41.9279 7.404 42.0399 7.638 42.2847 7.818C42.5296 8.004 42.8374 8.1 43.2012 8.1ZM62.0838 5.802C62.0838 4.77 62.3427 3.978 62.8884 3.426C63.4201 2.88 64.1967 2.598 65.2041 2.598C65.7358 2.598 66.1976 2.67 66.5893 2.82C66.9881 2.97 67.31 3.186 67.5618 3.468C67.8207 3.744 68.0096 4.086 68.1285 4.482C68.2544 4.878 68.3174 5.316 68.3174 5.796C68.3174 6.828 68.0445 7.62 67.5128 8.172C66.9811 8.718 66.2046 9 65.1971 9C64.6654 9 64.2037 8.928 63.8119 8.778C63.4131 8.628 63.0913 8.412 62.8394 8.13C62.5875 7.854 62.3987 7.512 62.2727 7.116C62.1468 6.726 62.0838 6.282 62.0838 5.802ZM63.2662 5.802C63.2662 6.108 63.2942 6.402 63.3711 6.69C63.4411 6.978 63.546 7.218 63.7069 7.434C63.8538 7.638 64.0637 7.812 64.3016 7.944C64.5395 8.07 64.8473 8.142 65.1901 8.142C66.4774 8.148 67.1281 7.368 67.1281 5.796C67.1281 5.484 67.1001 5.178 67.0231 4.896C66.9531 4.608 66.8342 4.368 66.6873 4.152C66.5404 3.936 66.3445 3.774 66.0926 3.648C65.8548 3.522 65.5469 3.462 65.2041 3.462C63.9098 3.45 63.2662 4.236 63.2662 5.802ZM80.6516 3.84C80.9664 3.456 81.3092 3.174 81.687 3.012C82.0648 2.85 82.5336 2.778 83.1143 2.778C83.9818 2.778 84.6534 3.018 85.1291 3.504C85.5979 3.99 85.8288 4.71 85.8288 5.664C85.8288 6.762 85.5559 7.59 85.0102 8.154C84.4645 8.712 83.7019 9 82.7225 9C81.673 9 80.8965 8.694 80.3718 8.076C79.8471 7.458 79.5882 6.486 79.5882 5.16C79.5882 4.458 79.6302 3.864 79.7001 3.372C79.7841 2.88 79.896 2.454 80.0569 2.112C80.2108 1.77 80.3997 1.5 80.6236 1.296C80.8475 1.092 81.0924 0.93 81.3792 0.81C81.659 0.696 81.9669 0.612 82.2887 0.558C82.6245 0.516 82.9813 0.468 83.3591 0.432C83.8488 0.39 84.2406 0.342 84.5205 0.288C84.8003 0.234 85.0242 0.144 85.1921 0L85.318 0.882C85.2271 0.954 85.1221 1.014 85.0032 1.062C84.8843 1.11 84.7513 1.152 84.5974 1.188C84.4435 1.224 84.2406 1.248 84.0238 1.278C83.8069 1.308 83.541 1.32 83.2472 1.338C82.8414 1.362 82.4846 1.398 82.1768 1.464C81.8759 1.524 81.6031 1.644 81.3792 1.812C81.1623 1.98 80.9804 2.232 80.8545 2.556C80.7286 2.88 80.6376 3.3 80.5956 3.834C80.5956 3.84 80.6516 3.84 80.6516 3.84ZM80.7775 5.82C80.7775 6.126 80.8195 6.42 80.8895 6.708C80.9594 6.996 81.0784 7.248 81.2323 7.452C81.3862 7.668 81.5891 7.836 81.841 7.956C82.0928 8.082 82.3727 8.136 82.7085 8.136C83.3591 8.136 83.8488 7.938 84.1637 7.536C84.4785 7.134 84.6324 6.54 84.6324 5.748C84.6324 5.442 84.6044 5.154 84.5415 4.896C84.4785 4.638 84.3736 4.41 84.2266 4.224C84.0797 4.038 83.9048 3.894 83.6809 3.786C83.4641 3.69 83.1982 3.636 82.8974 3.636C82.1558 3.63 81.6171 3.816 81.2743 4.194C80.9454 4.566 80.7775 5.106 80.7775 5.82ZM87.8646 3.21C88.2214 3.024 88.6412 2.886 89.1239 2.796C89.6067 2.706 90.1104 2.664 90.6211 2.664C91.1108 2.664 91.5096 2.718 91.8035 2.832C92.0973 2.946 92.3282 3.09 92.4821 3.27C92.636 3.45 92.741 3.654 92.7969 3.87C92.8529 4.086 92.8669 4.308 92.8669 4.524C92.8669 5.01 92.8599 5.484 92.8249 5.952C92.7969 6.42 92.7829 6.852 92.7829 7.272C92.7829 7.578 92.7899 7.854 92.8249 8.124C92.8529 8.394 92.9089 8.634 92.9788 8.868H92.1393L91.8454 8.016H91.7755C91.6915 8.13 91.5866 8.238 91.4537 8.346C91.3277 8.454 91.1738 8.55 90.9919 8.64C90.817 8.718 90.6071 8.79 90.3623 8.856C90.1244 8.91 89.8585 8.946 89.5577 8.946C89.2569 8.946 88.97 8.904 88.7112 8.82C88.4523 8.742 88.2284 8.622 88.0325 8.472C87.8437 8.322 87.6967 8.142 87.5848 7.932C87.4728 7.716 87.4169 7.482 87.4169 7.212C87.4169 6.852 87.5008 6.558 87.6687 6.312C87.8366 6.072 88.0745 5.88 88.3893 5.736C88.6902 5.592 89.068 5.496 89.5017 5.43C89.9285 5.37 90.4112 5.34 90.9289 5.34H91.3137C91.4397 5.34 91.5726 5.346 91.6985 5.364C91.7265 5.124 91.7405 4.896 91.7405 4.71C91.7405 4.26 91.6356 3.948 91.4257 3.774C91.2158 3.594 90.838 3.504 90.2853 3.504C90.1314 3.504 89.9495 3.51 89.7746 3.54C89.5857 3.558 89.3968 3.594 89.2079 3.63C89.012 3.666 88.8301 3.708 88.6552 3.762C88.4803 3.816 88.3194 3.876 88.1935 3.942L87.8646 3.21ZM89.8865 8.1C90.1454 8.1 90.3902 8.076 90.6001 8.01C90.81 7.95 90.9849 7.878 91.1318 7.776C91.2788 7.686 91.4117 7.578 91.5096 7.464C91.6006 7.35 91.6775 7.242 91.7265 7.134V6.12C91.5936 6.114 91.4537 6.102 91.3207 6.102C91.1878 6.102 91.0479 6.096 90.915 6.096C90.6211 6.096 90.3413 6.114 90.0544 6.138C89.7676 6.162 89.5297 6.216 89.3128 6.3C89.103 6.378 88.9281 6.48 88.8021 6.612C88.6762 6.744 88.6132 6.918 88.6132 7.116C88.6132 7.404 88.7252 7.638 88.97 7.818C89.2079 8.004 89.5087 8.1 89.8865 8.1ZM39.8151 3.606H37.5903V8.856H36.4499V3.606H34.2252V2.754H39.8081V3.606H39.8151ZM53.1917 7.704C53.0238 7.818 52.8069 7.92 52.5341 8.01C52.2612 8.1 51.9604 8.142 51.6246 8.142C51.2258 8.142 50.89 8.082 50.6171 7.944C50.3443 7.818 50.1274 7.638 49.9665 7.422C49.7986 7.206 49.6866 6.954 49.6097 6.678C49.5397 6.402 49.5047 6.102 49.5047 5.796C49.5047 4.23 50.1764 3.45 51.5266 3.45C51.8275 3.45 52.1143 3.474 52.3732 3.54C52.632 3.6 52.8769 3.684 53.0938 3.792L53.4156 2.946C53.1567 2.832 52.8699 2.748 52.5551 2.688C52.2402 2.628 51.8555 2.598 51.3937 2.598C50.4003 2.598 49.6307 2.874 49.106 3.426C48.5743 3.972 48.3084 4.764 48.3084 5.802C48.3084 6.276 48.3574 6.72 48.4763 7.116C48.5883 7.512 48.7562 7.842 49.001 8.13C49.2389 8.406 49.5537 8.622 49.9315 8.778C50.3093 8.928 50.778 9 51.3237 9C51.7505 9 52.1633 8.958 52.5481 8.856C52.9329 8.76 53.2687 8.622 53.5555 8.442L53.1917 7.704ZM59.6492 8.856H61.0554L58.6767 6.096L57.9351 5.61L58.5298 5.208L60.7336 2.754H59.4953L57.2215 5.34L56.6128 5.508V2.748H55.4725V8.844H56.6128V6.102H57.2635L59.6492 8.856ZM76.342 8.856H77.4544V2.754H76.314L74.446 5.46L74.0193 6.186H73.9913L73.5855 5.478L71.5916 2.742H70.4722V8.838H71.5286V5.214L71.4167 4.062H71.4657L71.9344 4.998L73.7254 7.392H74.1242L75.8452 4.998L76.356 4.062H76.4259L76.342 5.22V8.856ZM99.7441 8.856H100.884V2.754H99.7441V5.31H96.5259V2.754H95.3855V8.85H96.5259V6.15H99.7441V8.856ZM107.594 8.856H109L106.621 6.096L105.88 5.61L106.474 5.208L108.678 2.754H107.44L105.159 5.34L104.55 5.508V2.748H103.41V8.844H104.55V6.102H105.201L107.594 8.856ZM0 6.21C0 5.898 0.0209884 5.58 0.0419769 5.286H23.57L20.8765 8.91H0.321823C0.125931 8.076 0 7.176 0 6.21ZM0.720603 2.616C0.447754 3.288 0.216881 4.026 0.104942 4.836H23.9128L25.5709 2.616H0.720603Z" fill="white"/>
</svg>
