<svg width="28" height="27" viewBox="0 0 28 27" fill="none" xmlns="http://www.w3.org/2000/svg">
<rect x="0.499382" width="27" height="26.9995" rx="10" fill="#FF8A37"/>
<path d="M7.49938 13.305C7.49938 9.68206 10.3374 7 13.9994 7C17.6613 7 20.4994 9.68206 20.4994 13.305C20.4994 16.9279 17.6613 19.61 13.9994 19.61C13.3413 19.61 12.7108 19.5231 12.1176 19.3606C12.0026 19.3286 11.8801 19.3372 11.7707 19.3849L10.4804 19.9553C10.4025 19.9897 10.3173 20.0044 10.2324 19.9981C10.1475 19.9919 10.0654 19.9649 9.99331 19.9195C9.92125 19.874 9.86146 19.8116 9.81918 19.7377C9.7769 19.6638 9.75342 19.5806 9.75082 19.4954L9.71507 18.3393C9.7126 18.2689 9.69584 18.1997 9.66581 18.136C9.63578 18.0724 9.5931 18.0154 9.54038 17.9688C8.27613 16.8378 7.49938 15.1998 7.49938 13.305ZM12.0055 12.1196L10.0961 15.1486C9.91332 15.4394 10.27 15.7669 10.5438 15.5597L12.5954 14.0029C12.6629 13.9517 12.7452 13.9238 12.8299 13.9235C12.9147 13.9232 12.9972 13.9505 13.065 14.0013L14.5836 15.1404C14.6913 15.2212 14.8146 15.2788 14.9457 15.3096C15.0769 15.3404 15.2129 15.3437 15.3454 15.3192C15.4778 15.2948 15.6038 15.2432 15.7153 15.1677C15.8268 15.0922 15.9214 14.9944 15.9933 14.8804L17.9026 11.8514C18.0863 11.5606 17.7288 11.2331 17.4549 11.4403L15.4034 12.9971C15.3359 13.0483 15.2536 13.0762 15.1688 13.0765C15.0841 13.0768 15.0016 13.0495 14.9338 12.9987L13.4152 11.8588C13.3074 11.778 13.1841 11.7203 13.053 11.6896C12.9219 11.6588 12.7858 11.6555 12.6534 11.68C12.521 11.7044 12.395 11.756 12.2835 11.8315C12.172 11.907 12.0773 12.0048 12.0055 12.1188V12.1196Z" fill="white"/>
</svg>
