<svg width="51" height="50" viewBox="0 0 51 50" fill="none" xmlns="http://www.w3.org/2000/svg">
<circle cx="25.1836" cy="25" r="25" fill="#FF7C32"/>
<path d="M26.7783 19.0076C26.7783 20.9015 35.9639 24.9735 35.9639 29.6136C35.9639 34.2538 31.1344 37 25.0737 37C19.1078 37 14.1836 34.7273 14.1836 29.6136C14.1836 24.5 23.6533 21.2803 23.3692 19.0076C23.3692 15.9773 20.5283 17.1136 19.3919 14.5568C21.6647 14.6515 23.3692 12 25.1684 12C26.9677 12 28.1987 14.3674 31.0396 14.178C29.8086 16.7348 26.4942 16.4508 26.7783 19.0076Z" stroke="white" stroke-width="0.9713" stroke-miterlimit="2.6131" stroke-linecap="round" stroke-linejoin="round"/>
<path d="M21.5698 17.9658H28.5773" stroke="white" stroke-width="0.9713" stroke-miterlimit="2.6131" stroke-linecap="round" stroke-linejoin="round"/>
<path d="M22.0433 19.3862H28.0092" stroke="white" stroke-width="0.9713" stroke-miterlimit="2.6131" stroke-linecap="round" stroke-linejoin="round"/>
<path d="M22.9906 25.2577C23.4641 24.9736 24.127 24.7842 24.8845 24.7842C26.3997 24.7842 27.6308 25.6364 27.6308 26.5834C27.6308 28.9508 22.7065 27.8145 22.7065 30.0872C22.7065 31.0342 23.9376 31.8865 25.4527 31.8865C26.2103 31.8865 26.8732 31.6971 27.3467 31.413" stroke="white" stroke-width="0.9713" stroke-miterlimit="2.6131" stroke-linecap="round" stroke-linejoin="round"/>
<path d="M25.2633 23.9316V32.8332" stroke="white" stroke-width="0.9713" stroke-miterlimit="2.6131" stroke-linecap="round" stroke-linejoin="round"/>
</svg>
