<svg width="51" height="50" viewBox="0 0 51 50" fill="none" xmlns="http://www.w3.org/2000/svg">
<circle cx="25.0527" cy="25" r="25" fill="#FF7C32"/>
<path d="M39.1913 25.7446H37.0268C36.7021 25.7446 36.4857 25.9611 36.4857 26.2858V26.8269H34.9706L33.4554 25.8529C33.3472 25.7446 33.239 25.7446 33.1307 25.7446H29.2346C29.1264 25.7446 28.9099 25.8528 28.8017 25.9611L27.2865 27.4762H21.4424C20.7931 27.4762 20.1437 27.8009 19.819 28.2338L13.542 26.394C12.8926 26.1775 12.2432 26.2857 11.8103 26.7187C11.2692 27.1516 11.0527 27.6927 11.0527 28.342C11.0527 29.0996 11.4856 29.749 12.135 30.0736L24.6892 36.8918C24.7974 36.8918 24.9056 37.0001 24.9056 37.0001H25.0138L34.9706 34.8356H36.594V35.3767C36.594 35.7014 36.8104 35.9178 37.1351 35.9178H39.2996C39.6243 35.9178 39.8407 35.7014 39.8407 35.3767V26.5022C39.7325 26.0693 39.516 25.7446 39.1913 25.7446ZM34.7541 33.5368H34.6459L24.9056 35.7013L12.5679 28.9914C12.2432 28.8832 12.135 28.5585 12.135 28.2338C12.135 27.9091 12.2433 27.6927 12.4597 27.4762C12.5679 27.368 12.7844 27.2598 13.0008 27.2598C13.1091 27.2598 13.2172 27.2598 13.2172 27.2598L19.3861 29.0996C19.3861 29.2078 19.3861 29.4243 19.3861 29.5325C19.3861 30.723 20.3601 31.697 21.5506 31.697H27.6113V30.6148H21.5506C20.9013 30.6148 20.4684 30.0736 20.4684 29.5325C20.4684 28.8832 21.0095 28.4503 21.5506 28.4503H27.6113C27.7195 28.4503 27.9359 28.342 28.0441 28.2338L29.5593 26.7187H33.0225L34.5377 27.6927C34.6459 27.8009 34.7541 27.8009 34.8623 27.8009H36.4857V33.3204H34.7541V33.5368ZM38.6502 34.6191H37.5679V34.078V27.4762V26.9351H38.6502V34.6191Z" fill="white"/>
<path d="M25.3383 23.039C28.3686 23.039 30.8578 20.5498 30.8578 17.5195C30.8578 14.4892 28.3686 12 25.3383 12C22.308 12 19.8188 14.4892 19.8188 17.5195C19.7106 20.5498 22.1997 23.039 25.3383 23.039ZM25.3383 12.974C27.8274 12.974 29.7755 14.9221 29.7755 17.4113C29.7755 19.9005 27.8274 21.8485 25.3383 21.8485C22.8491 21.8485 20.9011 19.9005 20.9011 17.4113C20.9011 14.9221 22.8491 12.974 25.3383 12.974Z" fill="white"/>
<path d="M26.3131 19.6841C26.6378 19.6841 26.8543 19.4676 26.8543 19.143H27.9365C27.9365 20.0088 27.1789 20.7663 26.3131 20.7663H25.772V21.3075H24.6898V20.7663H24.1486C23.2828 20.7663 22.5253 20.0088 22.5253 19.143V18.6018C22.5253 17.736 23.2828 16.9785 24.1486 16.9785H24.6898V15.3551H24.1486C23.824 15.3551 23.6075 15.5715 23.6075 15.8962H22.5253C22.5253 15.0304 23.2828 14.2728 24.1486 14.2728H24.6898V13.7317H25.772V14.2728H26.3131C27.1789 14.2728 27.9365 15.0304 27.9365 15.8962V16.4373C27.9365 17.3031 27.1789 18.0607 26.3131 18.0607H25.772V19.6841H26.3131ZM26.3131 16.8702C26.6378 16.8702 26.8543 16.6538 26.8543 16.3291V15.788C26.8543 15.4633 26.6378 15.2468 26.3131 15.2468H25.772V16.8702H26.3131ZM24.5816 18.0607H24.0404C23.7158 18.0607 23.4993 18.2772 23.4993 18.6018V19.143C23.4993 19.4676 23.7158 19.6841 24.0404 19.6841H24.5816V18.0607Z" fill="white"/>
</svg>
