<svg width="50" height="50" viewBox="0 0 50 50" fill="none" xmlns="http://www.w3.org/2000/svg">
<circle cx="25" cy="25" r="25" fill="#FD9C4B"/>
<path d="M13.8379 17.033C13.9393 17.1343 14.0406 17.1343 14.142 17.1343C14.2433 17.1343 14.3447 17.1343 14.3447 17.033C14.5474 16.9316 14.6488 16.7289 14.6488 16.5262V16.0194H18.2975C17.9935 16.8303 17.7908 17.7425 17.7908 18.6547C17.7908 22.4048 20.8314 25.4455 24.5816 25.4455C25.8992 25.4455 27.1155 25.0401 28.129 24.4319H34.4131V24.9387C34.4131 25.1414 34.5144 25.3441 34.7171 25.4455C34.8185 25.4455 34.8185 25.5469 34.9199 25.5469C35.0212 25.5469 35.1226 25.5469 35.2239 25.4455L37.8592 23.4184C37.9605 23.317 38.0618 23.2157 38.0618 23.013C38.0618 22.8103 37.9605 22.7089 37.8592 22.6075L35.2239 20.5804C35.0212 20.4791 34.8185 20.4791 34.7171 20.4791C34.5144 20.5804 34.4131 20.7832 34.4131 20.9859V21.4926H30.7643C31.0684 20.6818 31.2711 19.7696 31.2711 18.8574C31.2711 15.1072 28.2304 12.0666 24.4803 12.0666C23.1626 12.0666 21.9464 12.472 20.9328 13.0801H14.6488V12.5734C14.6488 12.3706 14.5474 12.1679 14.3447 12.0666C14.142 11.9652 13.9393 11.9652 13.8379 12.1679L11.2027 14.195C11.1013 14.2964 11 14.3977 11 14.6005C11 14.8032 11.1013 14.9045 11.2027 15.0059L13.8379 17.033ZM34.9199 22.3035C35.2239 22.3035 35.4266 22.1008 35.4266 21.7967L36.6429 22.8103L35.4266 23.8238C35.4266 23.5197 35.2239 23.317 34.9199 23.317H29.3453C29.6494 23.013 29.9534 22.6075 30.1561 22.3035H34.9199ZM30.2575 18.6547C30.2575 21.7967 27.7236 24.3306 24.5816 24.3306C21.4396 24.3306 18.9057 21.7967 18.9057 18.6547C18.9057 15.5127 21.4396 12.9788 24.5816 12.9788C27.7236 12.9788 30.2575 15.5127 30.2575 18.6547ZM13.6352 13.5869C13.6352 13.891 13.8379 14.0937 14.142 14.0937H19.7165C19.4125 14.3977 19.1084 14.8032 18.9057 15.1072H14.2433C13.9393 15.1072 13.7365 15.3099 13.7365 15.614L12.5203 14.6005L13.6352 13.5869Z" fill="white"/>
<path d="M37.555 26.459H35.5279C35.2239 26.459 35.0212 26.6617 35.0212 26.9658V27.4725H33.6022L32.1832 26.5603C32.0819 26.459 31.9805 26.459 31.8792 26.459H28.2304C28.129 26.459 27.9263 26.5603 27.8249 26.6617L26.4059 28.0807H20.9328C20.3247 28.0807 19.7165 28.3847 19.4125 28.7901L13.5339 27.0671C12.9257 26.8644 12.3176 26.9658 11.9121 27.3712C11.4054 27.7766 11.2026 28.2834 11.2026 28.8915C11.2026 29.601 11.6081 30.2091 12.2162 30.5132L23.9735 36.8986C24.0748 36.8986 24.1762 36.9999 24.1762 36.9999H24.2775L33.6022 34.9728H35.1226V35.4796C35.1226 35.7837 35.3253 35.9864 35.6293 35.9864H37.6564C37.9605 35.9864 38.1632 35.7837 38.1632 35.4796V27.1685C38.0619 26.763 37.8591 26.459 37.555 26.459ZM33.3995 33.7566H33.2982L24.1762 35.7837L12.6216 29.4996C12.3176 29.3983 12.2162 29.0942 12.2162 28.7901C12.2162 28.4861 12.3176 28.2834 12.5203 28.0807C12.6217 27.9793 12.8244 27.878 13.0271 27.878C13.1284 27.878 13.2297 27.878 13.2297 27.878L19.007 29.601C19.007 29.7024 19.007 29.9051 19.007 30.0064C19.007 31.1213 19.9192 32.0335 21.0341 32.0335H26.7101V31.02H21.0341C20.426 31.02 20.0206 30.5132 20.0206 30.0064C20.0206 29.3983 20.5273 28.9929 21.0341 28.9929H26.7101C26.8114 28.9929 27.0141 28.8915 27.1154 28.7901L28.5344 27.3712H31.7778L33.1968 28.2834C33.2981 28.3847 33.3995 28.3847 33.5008 28.3847H35.0212V33.5539H33.3995V33.7566ZM37.0483 34.7701H36.0347V34.2633V28.0807V27.5739H37.0483V34.7701Z" fill="white"/>
<path d="M24.5815 23.9252C27.4194 23.9252 29.7506 21.594 29.7506 18.756C29.7506 15.9181 27.4194 13.5869 24.5815 13.5869C21.7435 13.5869 19.4124 15.9181 19.4124 18.756C19.311 21.594 21.6422 23.9252 24.5815 23.9252ZM24.5815 14.4991C26.9126 14.4991 28.7371 16.3235 28.7371 18.6547C28.7371 20.9859 26.9126 22.8103 24.5815 22.8103C22.2503 22.8103 20.4259 20.9859 20.4259 18.6547C20.4259 16.3235 22.2503 14.4991 24.5815 14.4991Z" fill="white"/>
<path d="M23.4666 20.783C23.1626 20.783 22.9598 20.5803 22.9598 20.2763H21.9463C21.9463 21.0871 22.6558 21.7966 23.4666 21.7966H23.9734V22.3034H24.987V21.7966H25.4937C26.3046 21.7966 27.0141 21.0871 27.0141 20.2763V19.7695C27.0141 18.9586 26.3046 18.2492 25.4937 18.2492H24.987V16.7288H25.4937C25.7978 16.7288 26.0005 16.9315 26.0005 17.2356H27.0141C27.0141 16.4248 26.3046 15.7153 25.4937 15.7153H24.987V15.2085H23.9734V15.7153H23.4666C22.6558 15.7153 21.9463 16.4248 21.9463 17.2356V17.7424C21.9463 18.5532 22.6558 19.2627 23.4666 19.2627H23.9734V20.783H23.4666ZM23.4666 18.1478C23.1626 18.1478 22.9598 17.9451 22.9598 17.641V17.1342C22.9598 16.8302 23.1626 16.6275 23.4666 16.6275H23.9734V18.1478H23.4666ZM25.0883 19.2627H25.5951C25.8991 19.2627 26.1018 19.4654 26.1018 19.7695V20.2763C26.1018 20.5803 25.8991 20.783 25.5951 20.783H25.0883V19.2627Z" fill="white"/>
</svg>
