<svg width="50" height="50" viewBox="0 0 50 50" fill="none" xmlns="http://www.w3.org/2000/svg">
<circle cx="25" cy="25" r="25" fill="#0ED0C5"/>
<path d="M20.1524 37C19.9571 37 19.7617 36.8046 19.7617 36.6093V25.1836C19.7617 24.9883 19.9571 24.793 20.1524 24.793C20.3477 24.793 20.543 24.9883 20.543 25.1836V36.6093C20.543 36.8046 20.3477 37 20.1524 37Z" fill="white" fill-opacity="0.929412"/>
<path d="M25.2305 26.5508C25.1328 26.5508 25.0352 26.5508 24.9375 26.4531L23.1797 24.4023C23.082 24.3047 23.082 24.207 23.082 24.207V22.6445C23.082 22.4492 23.2774 22.2539 23.4727 22.2539C23.668 22.2539 23.8633 22.4492 23.8633 22.6445V24.0117L25.2305 25.5742L26.5976 24.0117V22.6445C26.5976 22.4492 26.793 22.2539 26.9883 22.2539C27.1836 22.2539 27.3789 22.4492 27.3789 22.6445V24.207C27.3789 24.3047 27.3789 24.4023 27.2812 24.4023L25.5234 26.4531C25.4258 26.4531 25.3281 26.5508 25.2305 26.5508Z" fill="white" fill-opacity="0.929412"/>
<path d="M27.0858 27.8202C26.9881 27.8202 26.9882 27.8202 26.8905 27.7226L25.2304 26.5507L23.5702 27.7226C23.4726 27.8202 23.3749 27.8202 23.2773 27.8202C23.1796 27.8202 23.0819 27.7226 23.0819 27.6249L21.5195 24.8906C21.4218 24.6952 21.5194 24.4999 21.6171 24.4023C21.8124 24.3046 22.0077 24.4023 22.1054 24.4999L23.4726 26.9413L25.035 25.8671C25.1327 25.7695 25.328 25.7695 25.4257 25.8671L26.9882 26.9413L28.3554 24.4999C28.453 24.3046 28.6483 24.3046 28.8436 24.4023C29.039 24.4999 29.0389 24.6952 28.9413 24.8906L27.3788 27.6249C27.3788 27.7226 27.2811 27.7226 27.0858 27.8202C27.1835 27.8202 27.1835 27.8202 27.0858 27.8202Z" fill="white" fill-opacity="0.929412"/>
<path d="M29.332 18.543C29.1367 18.543 28.9414 18.3477 28.9414 18.1523V16.4922C28.9414 14.4414 27.2813 12.7813 25.2305 12.7813C24.2539 12.7813 23.375 13.1719 22.5938 13.8555C21.9102 14.539 21.5196 15.5156 21.5196 16.4922V18.0547C21.5196 18.25 21.3242 18.4453 21.1289 18.4453C20.9336 18.4453 20.7383 18.25 20.7383 18.0547V16.4922C20.7383 15.9062 20.836 15.3203 21.1289 14.7344C21.3242 14.2461 21.7149 13.7578 22.1055 13.2695C22.9844 12.3906 24.0586 12 25.2305 12C26.4024 12 27.5742 12.4883 28.3555 13.2695C29.2344 14.1484 29.625 15.2226 29.625 16.3945V18.0547C29.7227 18.4453 29.5274 18.543 29.332 18.543Z" fill="white" fill-opacity="0.929412"/>
<path d="M25.2305 23.5234C23.375 23.5234 21.8125 21.9609 21.8125 20.1055V17.3711C21.8125 17.2734 21.8125 17.1758 21.9101 17.0781C22.0078 16.9805 22.1054 16.9805 22.2031 16.9805C22.2031 16.9805 25.4257 17.0781 26.7929 15.7109C26.8906 15.6133 26.9882 15.6133 27.0859 15.6133C27.1835 15.6133 27.2812 15.6133 27.3789 15.7109L28.6484 17.0781C28.7461 17.1758 28.746 17.2734 28.746 17.2734V20.0078C28.6484 21.9609 27.0859 23.5234 25.2305 23.5234ZM22.5937 17.7617V20.1055C22.5937 21.5703 23.7656 22.7421 25.2305 22.7421C26.6953 22.7421 27.8672 21.5703 27.8672 20.1055V17.4687L26.9882 16.4922C25.7187 17.5664 23.4726 17.7617 22.5937 17.7617Z" fill="white" fill-opacity="0.929412"/>
<path d="M22.2031 20.5937H21.8125C21.0312 20.5937 20.3477 19.9101 20.3477 19.1289C20.3477 18.3477 21.0312 17.6641 21.8125 17.6641H22.2031C22.3984 17.6641 22.5937 17.8594 22.5937 18.0547V20.2031C22.5937 20.3984 22.3984 20.5937 22.2031 20.5937ZM21.8125 18.3476C21.4219 18.3476 21.1289 18.6406 21.1289 19.0312C21.1289 19.4219 21.4219 19.7148 21.8125 19.7148H21.9101L21.8125 18.3476Z" fill="white" fill-opacity="0.929412"/>
<path d="M28.7461 20.5937H28.3555C28.1602 20.5937 27.9648 20.3984 27.9648 20.2031V18.0547C27.9648 17.8594 28.1602 17.6641 28.3555 17.6641H28.7461C29.5273 17.6641 30.2109 18.3477 30.2109 19.1289C30.2109 19.9101 29.5273 20.5937 28.7461 20.5937ZM28.6484 19.8125C29.1367 19.8125 29.4297 19.5195 29.4297 19.1289C29.4297 18.7383 29.1367 18.4453 28.7461 18.4453H28.6484V19.8125Z" fill="white" fill-opacity="0.929412"/>
<path d="M32.5546 36.9999H17.9062C17.418 36.9999 16.9297 36.6093 16.9297 36.0234V28.5039C16.9297 27.7226 17.2226 26.9414 17.7109 26.2578C18.1992 25.5742 18.8828 25.0859 19.664 24.8906L23.375 23.7187C23.5703 23.6211 23.7656 23.7187 23.8632 23.9141C23.9609 24.1094 23.8632 24.3047 23.6679 24.4023L19.957 25.5742C18.6875 25.9648 17.8086 27.1367 17.8086 28.5039V36.0234C17.8086 36.121 17.9062 36.2187 18.0039 36.2187H32.6523C32.7499 36.2187 32.8476 36.121 32.8476 36.0234V28.5039C32.8476 27.1367 31.9687 25.9648 30.6991 25.5742L26.9882 24.4023C26.7929 24.3047 26.6953 24.1094 26.7929 23.9141C26.8906 23.7187 27.0859 23.6211 27.2812 23.7187L30.9921 24.8906C31.7733 25.0859 32.4569 25.5742 32.9452 26.2578C33.4335 26.9414 33.7265 27.7226 33.7265 28.5039V36.0234C33.5312 36.6093 33.0429 36.9999 32.5546 36.9999Z" fill="white" fill-opacity="0.929412"/>
<path d="M25.1328 37C25.0351 37 24.9375 36.9023 24.8398 36.8046L23.6679 35.0469L23.375 34.6562C23.2773 34.5586 23.2773 34.4609 23.2773 34.3632V34.2656L24.2539 27.918C24.2539 27.7227 24.4492 27.625 24.6445 27.625C24.8398 27.625 24.9375 27.8203 24.9375 28.0156L23.9609 34.3632L25.3281 36.414C25.4257 36.6093 25.4258 36.8047 25.2305 36.9023C25.2305 37 25.2304 37 25.1328 37Z" fill="white" fill-opacity="0.929412"/>
<path d="M25.4255 37C25.3279 37 25.3278 37 25.2302 36.9023C25.0349 36.8047 25.0348 36.6093 25.1325 36.414L26.4997 34.3632L25.5231 28.0156C25.5231 27.8203 25.6208 27.625 25.8161 27.625C26.0114 27.625 26.2067 27.7227 26.2067 27.918L27.1833 34.2656V34.3632C27.1833 34.3632 27.1833 34.3633 27.1833 34.4609C27.1833 34.5586 27.1833 34.5586 27.0856 34.6562L25.6208 36.8046C25.6208 36.9023 25.5232 37 25.4255 37Z" fill="white" fill-opacity="0.929412"/>
<path d="M25.9138 28.3086H24.7419C24.5466 28.3086 24.449 28.2109 24.449 28.1132L24.0583 26.9414C23.9607 26.7461 24.0583 26.5508 24.2537 26.4531C24.449 26.3555 24.6443 26.4531 24.7419 26.6484L25.0349 27.5273H25.7185L26.0114 26.6484C26.1091 26.4531 26.3044 26.3555 26.4997 26.4531C26.695 26.5508 26.7927 26.7461 26.695 26.9414L26.3044 28.1132C26.1091 28.2109 26.0115 28.3086 25.9138 28.3086Z" fill="white" fill-opacity="0.929412"/>
<path d="M30.4063 37C30.211 37 30.0156 36.8046 30.0156 36.6093V25.1836C30.0156 24.9883 30.211 24.793 30.4063 24.793C30.6016 24.793 30.7969 24.9883 30.7969 25.1836V36.6093C30.7969 36.8046 30.6016 37 30.4063 37Z" fill="white" fill-opacity="0.929412"/>
<path d="M14 17.4688L36.4609 36.9999" stroke="white" stroke-miterlimit="10" stroke-linecap="round"/>
<path d="M36.4609 17.4688L14 36.9999" stroke="white" stroke-miterlimit="10" stroke-linecap="round"/>
</svg>
