<svg width="50" height="50" viewBox="0 0 50 50" fill="none" xmlns="http://www.w3.org/2000/svg">
<circle cx="25" cy="25" r="25" fill="#0DD9CD"/>
<path d="M26.3525 34.6619H21.6763V35.4712H26.3525V34.6619Z" fill="white"/>
<path d="M34.6259 23.7806H30.6691C31.6583 23.0611 32.1978 21.8921 32.1978 20.6331C32.1978 19.5539 31.7482 18.5648 31.0288 17.8453V13.9784C31.0288 12.8993 30.1295 12 29.0503 12H27.5216H20.5072H18.9784C17.8993 12 17 12.8993 17 13.9784V35.0216C17 36.1007 17.8993 37 18.9784 37H29.1403C30.2194 37 31.1187 36.1007 31.1187 35.0216V33.8525H34.6259C35.2554 33.8525 35.7949 33.313 35.7949 32.6835V24.8597C35.7949 24.2302 35.2554 23.7806 34.6259 23.7806ZM31.4784 20.6331C31.4784 22.3417 30.0396 23.7806 28.3309 23.7806C26.6223 23.7806 25.1834 22.3417 25.1834 20.6331C25.1834 18.9244 26.6223 17.4856 28.3309 17.4856C30.0396 17.4856 31.4784 18.9244 31.4784 20.6331ZM26.8921 12.8093L26.5324 13.6187H21.5863L21.2266 12.8093H26.8921ZM30.3093 35.0216C30.3093 35.6511 29.7698 36.1907 29.1403 36.1907H18.9784C18.3489 36.1907 17.8093 35.6511 17.8093 35.0216V13.9784C17.8093 13.3489 18.3489 12.8093 18.9784 12.8093H20.3274L20.9568 14.1583C21.0467 14.2482 21.1367 14.3381 21.3165 14.3381H26.8021C26.982 14.3381 27.0719 14.2482 27.1619 14.1583L27.7914 12.8093H29.1403C29.7698 12.8093 30.3093 13.3489 30.3093 13.9784V17.2158C29.7698 16.8561 29.0503 16.6762 28.3309 16.6762C26.1726 16.6762 24.464 18.3849 24.464 20.5432C24.464 21.8022 25.0935 22.9712 25.9928 23.6907H22.036C21.4065 23.6907 20.8669 24.2302 20.8669 24.8597V32.6835C20.8669 33.313 21.4065 33.8525 22.036 33.8525H30.2194V35.0216H30.3093ZM34.9856 32.6835C34.9856 32.8633 34.8057 33.0432 34.6259 33.0432H22.1259C21.9461 33.0432 21.7662 32.8633 21.7662 32.6835V24.8597C21.7662 24.6799 21.9461 24.5 22.1259 24.5H34.6259C34.8057 24.5 34.9856 24.6799 34.9856 24.8597V32.6835Z" fill="white"/>
<path d="M33.0074 29.9856C32.3779 29.9856 31.8384 30.5252 31.8384 31.1546C31.8384 31.7841 32.3779 32.3237 33.0074 32.3237C33.6369 32.3237 34.1765 31.7841 34.1765 31.1546C34.1765 30.5252 33.6369 29.9856 33.0074 29.9856ZM33.0074 31.5144C32.8276 31.5144 32.6477 31.3345 32.6477 31.1546C32.6477 30.9748 32.8276 30.7949 33.0074 30.7949C33.1873 30.7949 33.3672 30.9748 33.3672 31.1546C33.4571 31.3345 33.2772 31.5144 33.0074 31.5144Z" fill="white"/>
<path d="M28.6904 25.3093H22.4854V26.1187H28.6904V25.3093Z" fill="white"/>
<path d="M24.0141 31.5144H22.4854V32.3238H24.0141V31.5144Z" fill="white"/>
<path d="M26.3525 31.5144H24.8237V32.3238H26.3525V31.5144Z" fill="white"/>
<path d="M28.6909 31.5144H27.1621V32.3238H28.6909V31.5144Z" fill="white"/>
<path d="M31.0288 31.5144H29.5V32.3238H31.0288V31.5144Z" fill="white"/>
<path d="M34.1765 25.3093H31.8384V26.1187H34.1765V25.3093Z" fill="white"/>
<path d="M26.3522 29.9856H22.4854V30.7949H26.3522V29.9856Z" fill="white"/>
<path d="M31.029 29.9856H27.1621V30.7949H31.029V29.9856Z" fill="white"/>
<path d="M29.1402 19.0143C29.3201 19.0143 29.4999 19.1941 29.4999 19.374H30.3093C30.3093 18.7445 29.7697 18.2049 29.1402 18.2049H28.7805V17.8452H27.9712V18.2049H27.6114C26.9819 18.2049 26.4424 18.7445 26.4424 19.374V19.7337C26.4424 20.3632 26.9819 20.9028 27.6114 20.9028H27.9712V22.0718H27.6114C27.4316 22.0718 27.2517 21.892 27.2517 21.7121H26.4424C26.4424 22.3416 26.9819 22.8812 27.6114 22.8812H27.9712V23.2409H28.7805V22.8812H29.1402C29.7697 22.8812 30.3093 22.3416 30.3093 21.7121V21.3524C30.3093 20.7229 29.7697 20.1833 29.1402 20.1833H28.7805V19.0143H29.1402ZM29.1402 20.9927C29.3201 20.9927 29.4999 21.1725 29.4999 21.3524V21.7121C29.4999 21.892 29.3201 22.0718 29.1402 22.0718H28.7805V20.9028H29.1402V20.9927ZM27.9712 20.1833H27.6114C27.4316 20.1833 27.2517 20.0035 27.2517 19.8236V19.4639C27.2517 19.2841 27.4316 19.1042 27.6114 19.1042H27.9712V20.1833Z" fill="white"/>
</svg>
