<svg width="50" height="50" viewBox="0 0 50 50" fill="none" xmlns="http://www.w3.org/2000/svg">
<circle cx="25" cy="25" r="25" fill="#0AC1AF"/>
<path d="M13.5693 25.5375H35.506C35.8024 25.5375 36.0001 25.3399 36.0001 25.0435V12.4941C36.0001 12.1976 35.8024 12 35.506 12H13.5693C13.2728 12 13.0752 12.1976 13.0752 12.4941V25.0435C13.0752 25.3399 13.3716 25.5375 13.5693 25.5375ZM14.1621 13.087H35.0119V24.5494H14.1621V13.087Z" fill="white"/>
<path d="M23.0553 21.3874H24.1422V21.8814H25.2292V21.3874H26.3161C26.6126 21.3874 26.8102 21.1897 26.8102 20.8933V18.8182C26.8102 18.5218 26.6126 18.3241 26.3161 18.3241H25.2292V17.2372H25.7233V17.7312H26.8102V16.6443C26.8102 16.3478 26.6126 16.1502 26.3161 16.1502H25.2292V15.6561H24.1422V16.1502H23.0553C22.7588 16.1502 22.5612 16.3478 22.5612 16.6443V18.7194C22.5612 19.0158 22.7588 19.2134 23.0553 19.2134H24.1422V20.3004H23.5493V19.8063H22.4624V20.8933C22.4624 21.1897 22.7588 21.3874 23.0553 21.3874ZM23.5493 18.2253V17.1383H24.0434V18.2253H23.5493ZM25.1303 19.3123H25.6244V20.3992H25.1303V19.3123Z" fill="white"/>
<path d="M33.6283 16.3478C32.5414 15.8538 31.6521 15.0633 31.158 13.8775C31.0592 13.6799 30.8615 13.5811 30.6639 13.5811H18.3121C18.1145 13.5811 17.9169 13.6799 17.8181 13.8775C17.324 14.9644 16.5335 15.8538 15.3477 16.3478C15.1501 16.4467 15.0513 16.6443 15.0513 16.8419V20.8933C15.0513 21.0909 15.1501 21.2886 15.3477 21.3874C16.4347 21.8814 17.324 22.672 17.8181 23.8577C17.9169 24.0554 18.1145 24.1542 18.3121 24.1542H30.6639C30.8615 24.1542 31.0592 24.0554 31.158 23.8577C31.6521 22.7708 32.4426 21.8814 33.6283 21.3874C33.826 21.2886 33.9248 21.0909 33.9248 20.8933V16.8419C34.0236 16.5455 33.826 16.3478 33.6283 16.3478ZM28.7864 18.8182C28.7864 21.0909 26.9089 22.9684 24.6362 22.9684C22.3635 22.9684 20.4861 21.0909 20.4861 18.8182C20.4861 16.5455 22.3635 14.668 24.6362 14.668C26.9089 14.668 28.7864 16.4467 28.7864 18.8182ZM18.7073 22.9684C18.1145 21.8815 17.3239 20.9921 16.237 20.4981V17.1383C17.3239 16.5455 18.2133 15.7549 18.7073 14.668H21.4742C20.1896 15.6561 19.3991 17.1384 19.3991 18.8182C19.3991 20.498 20.1896 22.0791 21.4742 22.9684H18.7073ZM32.9366 20.4981C31.8497 21.0909 30.9603 21.8815 30.4663 22.9684H27.6995C28.9841 21.9803 29.7746 20.498 29.7746 18.8182C29.7746 17.1384 28.9841 15.5573 27.6995 14.668H30.4663C31.0592 15.7549 31.8497 16.6443 32.9366 17.1383V20.4981Z" fill="white"/>
<path d="M37.6799 26.6245H35.6048C35.3083 26.6245 35.1107 26.8221 35.1107 27.1185V27.6126H33.7273L32.2451 26.6245C32.1463 26.5256 32.0475 26.5256 31.9486 26.5256H28.2925C28.1937 26.5256 27.9961 26.6245 27.8973 26.7233L26.5139 28.1067H20.9803C20.3874 28.1067 19.7945 28.4031 19.3992 28.7984L13.4704 27.0197C12.8775 26.8221 12.2846 26.9209 11.7905 27.3162C11.2964 27.7114 11 28.2055 11 28.7984C11 29.4901 11.3953 30.0829 11.9881 30.4782L23.8459 36.9011C23.9447 36.9011 24.0435 37 24.1423 37H24.2411L33.6285 34.9248H35.1107V35.4189C35.1107 35.7154 35.3083 35.913 35.6048 35.913H37.6799C37.9763 35.913 38.1739 35.7154 38.1739 35.4189V27.0197C38.1739 26.8221 37.8775 26.6245 37.6799 26.6245ZM33.4309 33.9367H33.3321L24.1423 36.0118L12.4822 29.6877C12.1858 29.5889 12.087 29.2924 12.087 28.996C12.087 28.6995 12.1858 28.5019 12.3834 28.3043C12.4822 28.2055 12.6799 28.1067 12.8775 28.1067C12.9763 28.1067 13.0751 28.1067 13.0751 28.1067L18.8064 29.7865C18.8064 29.8853 18.8064 30.083 18.8064 30.1818C18.8064 31.3675 19.6957 32.2569 20.8814 32.2569H26.6126V31.1699H20.8814C20.2885 31.1699 19.7945 30.6758 19.7945 30.083C19.7945 29.4901 20.2885 28.996 20.8814 28.996H26.6126C26.7115 28.996 26.9091 28.8972 27.0079 28.7984L28.3913 27.415H31.6522L33.1344 28.4031C33.2332 28.5019 33.332 28.5019 33.4309 28.5019H35.0119V33.7391H33.4309V33.9367ZM37.087 35.0237H36V34.5296V28.3043V27.7114H37.087V35.0237Z" fill="white"/>
</svg>
