<svg width="50" height="50" viewBox="0 0 50 50" fill="none" xmlns="http://www.w3.org/2000/svg">
<circle cx="25" cy="25" r="25" fill="#FF8A37"/>
<path d="M38.1946 14.2901H37.3358H35.6183C35.5229 13.7176 35.2366 13.1451 34.855 12.7634C34.3779 12.2863 33.7099 12 33.042 12C32.2786 12 31.7061 12.2863 31.229 12.7634C30.8473 13.1451 30.561 13.7176 30.4656 14.2901H30.1794C30.0839 13.7176 29.7977 13.1451 29.416 12.7634C28.9389 12.2863 28.271 12 27.603 12C26.9351 12 26.2672 12.2863 25.7901 12.7634C25.4084 13.1451 25.1221 13.7176 25.0267 14.2901H24.8359C24.7405 13.7176 24.4542 13.1451 24.0725 12.7634C23.5954 12.2863 22.9275 12 22.2595 12C21.5916 12 20.9236 12.2863 20.4465 12.7634C20.0648 13.1451 19.7786 13.7176 19.6832 14.2901H19.3015C19.2061 13.7176 18.9198 13.1451 18.5381 12.7634C18.061 12.2863 17.3931 12 16.7252 12C16.0572 12 15.3893 12.2863 14.9122 12.7634C14.5305 13.1451 14.2443 13.7176 14.1488 14.2901H12.145H11.2862C11.1908 14.2901 11.0954 14.2901 11.0954 14.3855C11 14.4809 11 14.4809 11 14.5763V18.9657C11 19.0611 11 19.1565 11.0954 19.1565C11.1908 19.2519 11.1908 19.2519 11.2862 19.2519H11.8587V34.6145V36.7137C11.8587 36.8091 11.8588 36.9046 11.9542 36.9046C12.0496 37 12.0496 37 12.145 37H37.4313C37.5267 37 37.6221 37 37.6221 36.9046C37.7175 36.8092 37.7175 36.8091 37.7175 36.7137V34.6145V19.2519H38.29C38.3855 19.2519 38.4809 19.2519 38.4809 19.1565C38.5763 19.0611 38.5763 19.0611 38.5763 18.9657V14.5763C38.5763 14.4809 38.5763 14.3855 38.4809 14.3855C38.2901 14.3855 38.1946 14.2901 38.1946 14.2901ZM31.5153 13.2405C31.8969 12.8588 32.374 12.668 32.8511 12.668C33.4236 12.668 33.9007 12.8588 34.2824 13.2405C34.5687 13.5267 34.7595 13.9084 34.855 14.2901H31.0382C31.0382 13.9084 31.229 13.5267 31.5153 13.2405ZM26.0763 13.2405C26.458 12.8588 26.9351 12.668 27.4122 12.668C27.9847 12.668 28.4618 12.8588 28.8435 13.2405C29.1298 13.5267 29.3206 13.9084 29.416 14.2901H25.5992C25.5992 13.9084 25.7901 13.5267 26.0763 13.2405ZM20.7328 13.2405C21.1145 12.8588 21.5916 12.668 22.0687 12.668C22.6412 12.668 23.1183 12.8588 23.5 13.2405C23.7862 13.5267 23.9771 13.9084 24.0725 14.2901H20.2557C20.2557 13.9084 20.4466 13.5267 20.7328 13.2405ZM15.1984 13.2405C15.5801 12.8588 16.0572 12.668 16.5343 12.668C17.1069 12.668 17.584 12.8588 17.8702 13.2405C18.1565 13.5267 18.3473 13.9084 18.4427 14.2901H14.6259C14.7214 13.9084 14.9122 13.5267 15.1984 13.2405ZM36.9542 36.4275H12.2404V34.9962H36.9542V36.4275ZM36.9542 34.3282H12.2404V19.3473H36.9542V34.3282ZM37.8129 18.6794H11.3816V14.958H12.2404H14.2442H18.4427C18.3473 15.3397 18.1565 15.7214 17.8702 16.0076C17.4886 16.3893 17.0114 16.5802 16.5343 16.5802C16.3435 16.5802 16.2481 16.771 16.2481 16.8664C16.2481 17.0573 16.4389 17.1527 16.5343 17.1527C17.2977 17.1527 17.8702 16.8664 18.3473 16.3893C18.729 16.0076 19.0153 15.4351 19.1107 14.8626H19.7786H23.9771C23.8817 15.2443 23.6908 15.626 23.4046 15.9122C23.0229 16.2939 22.5458 16.4847 21.9733 16.4847C21.7824 16.4847 21.687 16.6756 21.687 16.771C21.687 16.9618 21.7824 17.0573 21.9733 17.0573C22.7366 17.0573 23.3091 16.771 23.7862 16.2939C24.1679 15.9122 24.4542 15.3397 24.5496 14.7672H25.1221H29.3206C29.2252 15.1488 29.0343 15.5305 28.7481 15.8168C28.3664 16.1985 27.8893 16.3893 27.3168 16.3893C27.1259 16.3893 27.0305 16.5801 27.0305 16.6756C27.0305 16.8664 27.1259 16.9618 27.3168 16.9618C28.0801 16.9618 28.6527 16.6756 29.1298 16.1985C29.5114 15.8168 29.7977 15.2443 29.8931 14.6718H30.4656H34.6641C34.5687 15.0535 34.3779 15.4351 34.0916 15.7214C33.7099 16.103 33.2328 16.2939 32.6603 16.2939C32.4695 16.2939 32.374 16.4847 32.374 16.5802C32.374 16.771 32.4695 16.8664 32.6603 16.8664C33.3282 16.8664 33.9961 16.5802 34.4732 16.1031C34.8549 15.7214 35.1412 15.1489 35.2366 14.5763H36.9542H37.5267V18.6794H37.8129Z" fill="white" stroke="white" stroke-width="0.25" stroke-miterlimit="10"/>
<path d="M13.7672 25.9313H17.4886C17.584 25.9313 17.6795 25.9312 17.6795 25.8358C17.7749 25.7404 17.7748 25.7404 17.7748 25.645V22.019C17.7748 21.9236 17.7749 21.8282 17.6795 21.8282C17.584 21.7328 17.584 21.7328 17.4886 21.7328H13.7672C13.6718 21.7328 13.5764 21.7328 13.5764 21.8282C13.481 21.9236 13.481 21.9236 13.481 22.019V25.645C13.481 25.7404 13.481 25.8358 13.5764 25.8358C13.5764 25.9312 13.6718 25.9313 13.7672 25.9313ZM14.0535 22.3053H17.2024V25.2633H14.0535V22.3053Z" fill="white" stroke="white" stroke-width="0.25" stroke-miterlimit="10"/>
<path d="M19.6832 25.9313H23.4046C23.5 25.9313 23.5955 25.9312 23.5955 25.8358C23.6909 25.7404 23.6909 25.7404 23.6909 25.645V22.019C23.6909 21.9236 23.6909 21.8282 23.5955 21.8282C23.5 21.7328 23.5 21.7328 23.4046 21.7328H19.6832C19.5878 21.7328 19.4924 21.7328 19.4924 21.8282C19.3969 21.9236 19.397 21.9236 19.397 22.019V25.645C19.397 25.7404 19.3969 25.8358 19.4924 25.8358C19.4924 25.9312 19.5878 25.9313 19.6832 25.9313ZM19.9695 22.3053H23.1184V25.2633H19.9695V22.3053Z" fill="white" stroke="white" stroke-width="0.25" stroke-miterlimit="10"/>
<path d="M13.7672 31.7519H17.4886C17.584 31.7519 17.6795 31.7519 17.6795 31.6565C17.7749 31.5611 17.7748 31.5611 17.7748 31.4657V27.8397C17.7748 27.7443 17.7749 27.6489 17.6795 27.6489C17.584 27.5534 17.584 27.5535 17.4886 27.5535H13.7672C13.6718 27.5535 13.5764 27.5534 13.5764 27.6489C13.481 27.7443 13.481 27.7443 13.481 27.8397V31.4657C13.481 31.5611 13.481 31.6565 13.5764 31.6565C13.5764 31.7519 13.6718 31.7519 13.7672 31.7519ZM14.0535 28.126H17.2024V31.084H14.0535V28.126Z" fill="white" stroke="white" stroke-width="0.25" stroke-miterlimit="10"/>
<path d="M19.6832 31.7519H23.4046C23.5 31.7519 23.5955 31.7519 23.5955 31.6565C23.6909 31.5611 23.6909 31.5611 23.6909 31.4657V27.8397C23.6909 27.7443 23.6909 27.6489 23.5955 27.6489C23.5 27.5534 23.5 27.5535 23.4046 27.5535H19.6832C19.5878 27.5535 19.4924 27.5534 19.4924 27.6489C19.4924 27.7443 19.397 27.7443 19.397 27.8397V31.4657C19.397 31.5611 19.3969 31.6565 19.4924 31.6565C19.4924 31.7519 19.5878 31.7519 19.6832 31.7519ZM19.9695 28.126H23.1184V31.084H19.9695V28.126Z" fill="white" stroke="white" stroke-width="0.25" stroke-miterlimit="10"/>
<path d="M25.3131 25.9313H29.0344C29.1299 25.9313 29.2253 25.9312 29.2253 25.8358C29.3207 25.7404 29.3207 25.7404 29.3207 25.645V22.019C29.3207 21.9236 29.3207 21.8282 29.2253 21.8282C29.1299 21.7328 29.1299 21.7328 29.0344 21.7328H25.3131C25.2177 21.7328 25.1223 21.7328 25.1223 21.8282C25.0268 21.9236 25.0269 21.9236 25.0269 22.019V25.645C25.0269 25.7404 25.0268 25.8358 25.1223 25.8358C25.1223 25.9312 25.2177 25.9313 25.3131 25.9313ZM25.5994 22.3053H28.7482V25.2633H25.5994V22.3053Z" fill="white" stroke="white" stroke-width="0.25" stroke-miterlimit="10"/>
<path d="M25.3131 31.7519H29.0344C29.1299 31.7519 29.2253 31.7519 29.2253 31.6565C29.3207 31.5611 29.3207 31.5611 29.3207 31.4657V27.8397C29.3207 27.7443 29.3207 27.6489 29.2253 27.6489C29.1299 27.5534 29.1299 27.5535 29.0344 27.5535H25.3131C25.2177 27.5535 25.1223 27.5534 25.1223 27.6489C25.0268 27.7443 25.0269 27.7443 25.0269 27.8397V31.4657C25.0269 31.5611 25.0268 31.6565 25.1223 31.6565C25.1223 31.7519 25.2177 31.7519 25.3131 31.7519ZM25.5994 28.126H28.7482V31.084H25.5994V28.126Z" fill="white" stroke="white" stroke-width="0.25" stroke-miterlimit="10"/>
<path d="M31.2292 25.9313H34.9505C35.0459 25.9313 35.1414 25.9312 35.1414 25.8358C35.2368 25.7404 35.2368 25.7404 35.2368 25.645V22.019C35.2368 21.9236 35.2368 21.8282 35.1414 21.8282C35.0459 21.7328 35.0459 21.7328 34.9505 21.7328H31.2292C31.1338 21.7328 31.0383 21.7328 31.0383 21.8282C30.9429 21.9236 30.9429 21.9236 30.9429 22.019V25.645C30.9429 25.7404 30.9429 25.8358 31.0383 25.8358C31.0383 25.9312 31.1338 25.9313 31.2292 25.9313ZM31.5154 22.3053H34.6643V25.2633H31.5154V22.3053Z" fill="white" stroke="white" stroke-width="0.25" stroke-miterlimit="10"/>
<path d="M31.2292 31.7519H34.9505C35.0459 31.7519 35.1414 31.7519 35.1414 31.6565C35.2368 31.5611 35.2368 31.5611 35.2368 31.4657V27.8397C35.2368 27.7443 35.2368 27.6489 35.1414 27.6489C35.0459 27.5534 35.0459 27.5535 34.9505 27.5535H31.2292C31.1338 27.5535 31.0383 27.5534 31.0383 27.6489C31.0383 27.7443 30.9429 27.7443 30.9429 27.8397V31.4657C30.9429 31.5611 30.9429 31.6565 31.0383 31.6565C31.0383 31.7519 31.1338 31.7519 31.2292 31.7519ZM31.5154 28.126H34.6643V31.084H31.5154V28.126Z" fill="white" stroke="white" stroke-width="0.25" stroke-miterlimit="10"/>
</svg>
