<svg width="50" height="50" viewBox="0 0 50 50" fill="none" xmlns="http://www.w3.org/2000/svg">
<circle cx="25" cy="25" r="25" fill="#07B8B0"/>
<path d="M31.1847 30.8083C32.1977 31.2342 32.731 31.8559 32.5031 32.6159C32.2753 33.3759 31.5141 33.5143 30.7827 33.1456C29.9666 32.8331 29.2053 32.9715 29.0622 33.6754C28.8343 34.4355 29.3676 35.0571 30.3806 35.483" stroke="white" stroke-width="0.9713" stroke-miterlimit="2.6131" stroke-linecap="round" stroke-linejoin="round"/>
<path d="M31.9719 31.2619L32.3119 30.6713M29.2241 35.7612L29.5642 35.1706" stroke="white" stroke-width="0.9713" stroke-miterlimit="2.6131" stroke-linecap="round" stroke-linejoin="round"/>
<path d="M26.7784 31.2943C27.7943 29.1608 30.4357 28.2465 32.5691 29.2624C34.7026 30.2784 35.6169 32.9197 34.601 35.0531C33.585 37.1866 30.9437 38.1009 28.8102 37.085C27.4895 36.4754 26.6768 35.2563 26.4736 33.9357" stroke="white" stroke-width="0.9713" stroke-miterlimit="2.6131" stroke-linecap="round" stroke-linejoin="round"/>
<path d="M22.9998 20.6144C24.0563 19.9341 24.9874 19.8327 25.6587 20.6021C26.2558 21.3019 25.8523 22.1771 25.0043 22.6352C24.2304 23.1628 23.7528 23.9685 24.35 24.6683C24.8776 25.4422 25.8782 25.2668 27.0088 24.656" stroke="white" stroke-width="0.9713" stroke-miterlimit="2.6131" stroke-linecap="round" stroke-linejoin="round"/>
<path d="M23.8475 20.1562L23.5376 19.4473M26.2575 25.9015L25.9475 25.1926" stroke="white" stroke-width="0.9713" stroke-miterlimit="2.6131" stroke-linecap="round" stroke-linejoin="round"/>
<path d="M26.9805 17.4779C28.3012 17.9859 29.4187 19.0018 30.0283 20.4241C30.6378 21.8463 30.6379 23.3702 30.1299 24.6909M23.0185 27.7387C21.6978 27.2307 20.5803 26.2148 19.9707 24.7925C19.3612 23.3702 19.3612 21.8463 19.8691 20.5257" stroke="white" stroke-width="0.9713" stroke-miterlimit="2.6131" stroke-linecap="round" stroke-linejoin="round"/>
<path d="M16.2128 22.3544C16.7207 23.4719 16.2127 24.691 15.0952 25.199" stroke="white" stroke-width="0.9713" stroke-miterlimit="2.6131" stroke-linecap="round" stroke-linejoin="round"/>
<path d="M19.159 29.2625C18.651 28.145 17.432 27.637 16.3145 28.145" stroke="white" stroke-width="0.9713" stroke-miterlimit="2.6131" stroke-linecap="round" stroke-linejoin="round"/>
<path d="M30.8418 15.954C31.3498 17.0715 32.5689 17.5795 33.6864 17.0715" stroke="white" stroke-width="0.9713" stroke-miterlimit="2.6131" stroke-linecap="round" stroke-linejoin="round"/>
<path d="M33.8897 22.8623C33.3818 21.7447 33.8898 20.5257 35.0073 20.0177" stroke="white" stroke-width="0.9713" stroke-miterlimit="2.6131" stroke-linecap="round" stroke-linejoin="round"/>
<path d="M16.3145 12.9062H25.6609" stroke="white" stroke-width="0.9713" stroke-miterlimit="2.6131" stroke-linecap="round" stroke-linejoin="round"/>
<path d="M20.6826 15.3444H29.2163" stroke="white" stroke-width="0.9713" stroke-miterlimit="2.6131" stroke-linecap="round" stroke-linejoin="round"/>
<path d="M13.3677 17.8842H24.3396" stroke="white" stroke-width="0.9713" stroke-miterlimit="2.6131" stroke-linecap="round" stroke-linejoin="round"/>
<path d="M27.9976 12.9062H30.2326" stroke="white" stroke-width="0.9713" stroke-miterlimit="2.6131" stroke-linecap="round" stroke-linejoin="round"/>
<path d="M28.3016 31.3959H23.5269" stroke="white" stroke-width="0.9713" stroke-miterlimit="2.6131" stroke-linecap="round" stroke-linejoin="round"/>
<path d="M20.3779 33.9357H27.4893" stroke="white" stroke-width="0.9713" stroke-miterlimit="2.6131" stroke-linecap="round" stroke-linejoin="round"/>
<path d="M13.0635 36.374H25.3561" stroke="white" stroke-width="0.9713" stroke-miterlimit="2.6131" stroke-linecap="round" stroke-linejoin="round"/>
<path d="M21.7998 17.8843L11.6406 22.2528L16.3138 32.7167L33.1781 25.3005L38.3592 22.9639L33.7876 12.5L27.4889 15.243" stroke="white" stroke-width="0.9713" stroke-miterlimit="2.6131" stroke-linecap="round" stroke-linejoin="round"/>
</svg>
