<svg width="122" height="27" viewBox="0 0 122 27" fill="none" xmlns="http://www.w3.org/2000/svg">
<g clip-path="url(#clip0_1871_824)">
<path d="M0 20.9884H3.1157V18.2439H0V20.9884ZM4.44326 20.9884H7.55896V15.5779H4.44326V20.9884ZM8.88652 20.9884H12.0022V12.9119H8.88652V20.9884ZM13.3298 20.9884H16.4455V10.2459H13.3298V20.9884ZM29.6669 17.486C29.6669 15.5779 27.9871 14.0097 25.9551 14.0097H23.571C23.3 14.0097 22.7311 13.879 22.7311 13.3824C22.7311 12.8596 23.3 12.7028 23.571 12.7028H28.3935V10.1936H23.2187C21.241 10.1936 19.6154 11.7096 19.6154 13.5653C19.6154 15.4211 21.241 16.9371 23.2187 16.9371H25.63C25.9551 16.9371 26.5783 17.0939 26.5783 17.7212C26.5783 18.3485 25.9822 18.4792 25.63 18.4792H20.5907V20.9884H25.9551C27.9871 20.9622 29.6669 19.394 29.6669 17.486ZM39.6642 15.6041C39.6642 17.1723 38.3367 18.4269 36.7382 18.4269C35.1126 18.4269 33.8121 17.1462 33.8121 15.6041C33.8121 14.062 35.1397 12.7812 36.7382 12.7812C38.3367 12.7551 39.6642 14.0358 39.6642 15.6041ZM42.7799 15.6041C42.7799 12.3892 40.0706 9.77541 36.7382 9.77541C35.1397 9.77541 33.7038 10.3766 32.62 11.3437V10.1936H30.6693V27H33.785V20.7009C34.652 21.1713 35.6545 21.4327 36.7111 21.4327C40.0706 21.4327 42.7799 18.819 42.7799 15.6041ZM52.5876 15.6041C52.5876 17.1723 51.2601 18.4269 49.6616 18.4269C48.036 18.4269 46.7084 17.1462 46.7084 15.6041C46.7084 14.062 48.036 12.7812 49.6616 12.7812C51.2871 12.7551 52.5876 14.0358 52.5876 15.6041ZM55.7033 15.6041C55.7033 12.3892 52.994 9.77541 49.6616 9.77541C46.3291 9.77541 43.6198 12.3892 43.6198 15.6041C43.6198 18.819 46.3291 21.4327 49.6616 21.4327C52.994 21.4327 55.7033 18.819 55.7033 15.6041ZM63.1268 12.8335H64.2647V9.82769H63.1268C61.5283 9.82769 60.0924 10.4288 59.0087 11.3959V10.272H57.058V21.0407H60.1737V15.6825C60.1737 14.0881 61.5012 12.8335 63.1268 12.8335ZM68.4912 12.7551H70.9025V9.74927H68.4912V4.65247H65.3755V20.9622H68.4912V12.7551ZM81.225 15.6041C81.225 17.1723 79.8974 18.4269 78.2989 18.4269C76.6733 18.4269 75.3729 17.1462 75.3729 15.6041C75.3729 14.062 76.7004 12.7812 78.2989 12.7812C79.9245 12.7551 81.225 14.0358 81.225 15.6041ZM84.3407 15.6041C84.3407 12.3892 81.6314 9.77541 78.2989 9.77541C77.2152 9.77541 76.1857 10.0629 75.3187 10.5334V0H72.203V20.9361H74.1537V19.8383C75.2374 20.8316 76.7004 21.4327 78.2989 21.4327C81.6314 21.4327 84.3407 18.819 84.3407 15.6041ZM94.4735 15.6041C94.4735 17.1723 93.1459 18.4269 91.5474 18.4269C89.9218 18.4269 88.6214 17.1462 88.6214 15.6041C88.6214 14.062 89.9489 12.7812 91.5474 12.7812C93.1459 12.7551 94.4735 14.0358 94.4735 15.6041ZM95.6385 20.9361H97.5892V10.2197H95.6385V11.3437C94.5547 10.3766 93.1188 9.77541 91.5203 9.77541C88.1879 9.77541 85.4786 12.3892 85.4786 15.6041C85.4786 18.819 88.1879 21.4327 91.5203 21.4327C93.1188 21.4327 94.5547 20.8316 95.6385 19.8645V20.9361ZM106.313 20.9622H109.429V14.8722C109.429 12.0755 107.072 9.80155 104.146 9.80155C102.872 9.80155 101.734 10.2197 100.813 10.9516V10.1936H98.8625V14.2449V20.91V20.9361H101.978V14.8199C101.978 13.6699 102.954 12.7289 104.146 12.7289C105.338 12.7289 106.313 13.6699 106.313 14.8199V20.9622ZM117.99 15.1597L121.458 10.1936H117.692L115.254 13.6699H113.899V0H110.783V20.9361H113.899V16.6757H115.254L118.234 20.9361H122L117.99 15.1597Z" fill="url(#paint0_linear_1871_824)"/>
</g>
<defs>
<linearGradient id="paint0_linear_1871_824" x1="29.7753" y1="49.7134" x2="95.1682" y2="-18.0703" gradientUnits="userSpaceOnUse">
<stop offset="9.59002e-08" stop-color="#ED7D27"/>
<stop offset="1" stop-color="#E43421"/>
</linearGradient>
<clipPath id="clip0_1871_824">
<rect width="122" height="27" fill="white"/>
</clipPath>
</defs>
</svg>
