<svg width="179" height="39" viewBox="0 0 179 39" fill="none" xmlns="http://www.w3.org/2000/svg">
<g clip-path="url(#clip0_1871_795)">
<path d="M0 30.3166H4.5714V26.3524H0V30.3166ZM6.51921 30.3166H11.0906V22.5014H6.51921V30.3166ZM13.0384 30.3166H17.6098V18.6505H13.0384V30.3166ZM19.5576 30.3166H24.129V14.7996H19.5576V30.3166ZM43.5277 25.2575C43.5277 22.5015 41.0631 20.2362 38.0817 20.2362H34.5836C34.1861 20.2362 33.3513 20.0474 33.3513 19.3301C33.3513 18.575 34.1861 18.3485 34.5836 18.3485H41.6593V14.7241H34.0668C31.165 14.7241 28.7799 16.9138 28.7799 19.5944C28.7799 22.2749 31.165 24.4647 34.0668 24.4647H37.6047C38.0817 24.4647 38.996 24.6912 38.996 25.5973C38.996 26.5034 38.1215 26.6922 37.6047 26.6922H30.211V30.3166H38.0817C41.0631 30.2788 43.5277 28.0136 43.5277 25.2575ZM58.1959 22.5392C58.1959 24.8045 56.2481 26.6166 53.9027 26.6166C51.5177 26.6166 49.6096 24.7667 49.6096 22.5392C49.6096 20.3117 51.5574 18.4618 53.9027 18.4618C56.2481 18.424 58.1959 20.274 58.1959 22.5392ZM62.7673 22.5392C62.7673 17.8954 58.7921 14.12 53.9027 14.12C51.5574 14.12 49.4506 14.9884 47.8605 16.3853V14.7241H44.9984V39H49.5698V29.9013C50.8419 30.5808 52.3127 30.9584 53.863 30.9584C58.7921 30.9584 62.7673 27.183 62.7673 22.5392ZM77.1572 22.5392C77.1572 24.8045 75.2094 26.6166 72.8641 26.6166C70.479 26.6166 68.5312 24.7667 68.5312 22.5392C68.5312 20.3117 70.479 18.4618 72.8641 18.4618C75.2492 18.424 77.1572 20.274 77.1572 22.5392ZM81.7286 22.5392C81.7286 17.8954 77.7535 14.12 72.8641 14.12C67.9747 14.12 63.9996 17.8954 63.9996 22.5392C63.9996 27.183 67.9747 30.9584 72.8641 30.9584C77.7535 30.9584 81.7286 27.183 81.7286 22.5392ZM92.6205 18.5373H94.29V14.1955H92.6205C90.2752 14.1955 88.1683 15.0639 86.5783 16.4608V14.8374H83.7162V30.3921H88.2876V22.6525C88.2876 20.3495 90.2354 18.5373 92.6205 18.5373ZM100.491 18.424H104.029V14.0823H100.491V6.72023H95.9198V30.2788H100.491V18.424ZM119.174 22.5392C119.174 24.8045 117.227 26.6166 114.881 26.6166C112.496 26.6166 110.588 24.7667 110.588 22.5392C110.588 20.3117 112.536 18.4618 114.881 18.4618C117.266 18.424 119.174 20.274 119.174 22.5392ZM123.746 22.5392C123.746 17.8954 119.771 14.12 114.881 14.12C113.291 14.12 111.781 14.5353 110.509 15.2149V0H105.937V30.241H108.799V28.6554C110.389 30.09 112.536 30.9584 114.881 30.9584C119.771 30.9584 123.746 27.183 123.746 22.5392ZM138.613 22.5392C138.613 24.8045 136.665 26.6166 134.32 26.6166C131.934 26.6166 130.026 24.7667 130.026 22.5392C130.026 20.3117 131.974 18.4618 134.32 18.4618C136.665 18.424 138.613 20.274 138.613 22.5392ZM140.322 30.241H143.184V14.7619H140.322V16.3853C138.732 14.9884 136.625 14.12 134.28 14.12C129.39 14.12 125.415 17.8954 125.415 22.5392C125.415 27.183 129.39 30.9584 134.28 30.9584C136.625 30.9584 138.732 30.09 140.322 28.6931V30.241ZM155.984 30.2788H160.555V21.4821C160.555 17.4424 157.097 14.1578 152.804 14.1578C150.936 14.1578 149.266 14.7619 147.915 15.819V14.7241H145.052V20.576V30.2033V30.241H149.624V21.4066C149.624 19.7454 151.055 18.3863 152.804 18.3863C154.553 18.3863 155.984 19.7454 155.984 21.4066V30.2788ZM173.117 21.8974L178.205 14.7241H172.68L169.102 19.7454H167.114V0H162.543V30.241H167.114V24.0871H169.102L173.475 30.241H179L173.117 21.8974Z" fill="url(#paint0_linear_1871_795)"/>
</g>
<defs>
<linearGradient id="paint0_linear_1871_795" x1="43.6867" y1="71.8083" x2="138.079" y2="-27.5769" gradientUnits="userSpaceOnUse">
<stop offset="9.59002e-08" stop-color="#ED7D27"/>
<stop offset="1" stop-color="#E43421"/>
</linearGradient>
<clipPath id="clip0_1871_795">
<rect width="179" height="39" fill="white"/>
</clipPath>
</defs>
</svg>
