<svg width="21" height="19" viewBox="0 0 21 19" fill="none" xmlns="http://www.w3.org/2000/svg">
<path fill-rule="evenodd" clip-rule="evenodd" d="M20.1124 0.89755C20.3936 1.26278 20.5516 1.75808 20.5516 2.27453C20.5516 2.79097 20.3936 3.28627 20.1124 3.6515L8.86943 18.2497C8.72085 18.4426 8.54446 18.5957 8.35031 18.7001C8.15617 18.8046 7.94808 18.8583 7.73793 18.8583C7.52779 18.8583 7.3197 18.8046 7.12555 18.7001C6.93141 18.5957 6.75501 18.4426 6.60643 18.2497L1.02043 10.998C0.877167 10.8183 0.762894 10.6034 0.68428 10.3658C0.605667 10.1282 0.564287 9.87259 0.562557 9.61399C0.560826 9.35538 0.598779 9.09892 0.6742 8.85956C0.749621 8.6202 0.861001 8.40275 1.00184 8.21988C1.14268 8.03701 1.31016 7.89239 1.4945 7.79447C1.67885 7.69654 1.87637 7.64726 2.07553 7.6495C2.2747 7.65175 2.47153 7.70548 2.65454 7.80755C2.83755 7.90963 3.00306 8.058 3.14143 8.24402L7.73743 14.2116L17.9904 0.89755C18.1297 0.716563 18.2951 0.57299 18.4772 0.475034C18.6592 0.377078 18.8544 0.32666 19.0514 0.32666C19.2485 0.32666 19.4436 0.377078 19.6257 0.475034C19.8077 0.57299 19.9731 0.716563 20.1124 0.89755Z" fill="white"/>
</svg>
