<svg width="28" height="27" viewBox="0 0 28 27" fill="none" xmlns="http://www.w3.org/2000/svg">
<rect width="27.4994" height="27" rx="10" fill="#FF8A37"/>
<mask id="path-2-inside-1_1871_801" fill="white">
<path d="M11.8295 19.2124C11.3677 19.2124 11.4463 19.0381 11.287 18.5983L9.92913 14.1296L20.3814 7.92871"/>
</mask>
<path d="M11.287 18.5983L10.3302 18.8891L10.3378 18.9142L10.3468 18.9389L11.287 18.5983ZM9.92913 14.1296L9.4189 13.2696L8.74427 13.6698L8.97233 14.4204L9.92913 14.1296ZM11.8295 18.2124C11.801 18.2124 11.7979 18.2109 11.8118 18.2128C11.8258 18.2146 11.871 18.2217 11.9329 18.2455C11.999 18.2711 12.0762 18.3129 12.1511 18.3777C12.2255 18.442 12.2752 18.5097 12.3066 18.563C12.3354 18.612 12.3479 18.6476 12.3488 18.6501C12.3493 18.6516 12.3464 18.6434 12.3358 18.606C12.3177 18.5425 12.2819 18.4087 12.2272 18.2578L10.3468 18.9389C10.3717 19.0079 10.3858 19.0607 10.4122 19.1536C10.4293 19.2135 10.4788 19.4004 10.583 19.5775C10.7196 19.8096 10.9294 20.0019 11.2118 20.1111C11.4438 20.2007 11.6717 20.2124 11.8295 20.2124V18.2124ZM12.2438 18.3076L10.8859 13.8389L8.97233 14.4204L10.3302 18.8891L12.2438 18.3076ZM10.4394 14.9897L20.8916 8.78875L19.8712 7.06867L9.4189 13.2696L10.4394 14.9897Z" fill="white" mask="url(#path-2-inside-1_1871_801)"/>
<path d="M11.8297 19.2126C12.186 19.2126 12.3434 19.0496 12.5423 18.8562L14.4427 17.0083L12.0722 15.5789" fill="white"/>
<path d="M12.072 15.5792L17.816 19.8229C18.4715 20.1846 18.9445 19.9973 19.1078 19.2144L21.4459 8.19643C21.6852 7.23672 21.0801 6.80129 20.4529 7.086L6.72362 12.38C5.78648 12.7559 5.79206 13.2787 6.55282 13.5117L10.0761 14.6114L18.2328 9.46543C18.6178 9.23192 18.9713 9.35735 18.6813 9.61485" fill="white"/>
</svg>
