<svg width="28" height="27" viewBox="0 0 28 27" fill="none" xmlns="http://www.w3.org/2000/svg">
<rect x="0.4617" width="27.2941" height="26.9993" rx="10" fill="#FF8A37"/>
<path d="M14.3941 7.01097C15.103 7 15.8078 7.0065 16.5119 7C16.5545 7.82916 16.8527 8.67375 17.4597 9.25997C18.0654 9.86081 18.9222 10.1358 19.7558 10.2289V12.41C18.9746 12.3844 18.1897 12.2219 17.4808 11.8856C17.172 11.7458 16.8844 11.5658 16.6029 11.3818C16.5992 12.9646 16.6094 14.5453 16.5927 16.1215C16.5505 16.8788 16.3006 17.6324 15.8602 18.2564C15.1517 19.2952 13.922 19.9724 12.659 19.9935C11.8843 20.0378 11.1104 19.8265 10.4502 19.4373C9.35618 18.7922 8.58634 17.6112 8.47421 16.3438C8.46009 16.0753 8.45792 15.8064 8.46771 15.5378C8.56521 14.5071 9.07506 13.5211 9.86643 12.8504C10.7634 12.0692 12.02 11.6971 13.1965 11.9173C13.2074 12.7196 13.1753 13.5211 13.1753 14.3235C12.6379 14.1496 12.0098 14.1983 11.5402 14.5246C11.1966 14.7509 10.9369 15.0839 10.8012 15.4723C10.6891 15.747 10.7212 16.0521 10.7277 16.3438C10.8565 17.2326 11.7112 17.9797 12.6237 17.8989C13.2286 17.8924 13.8083 17.5414 14.1235 17.0275C14.2255 16.8475 14.3397 16.6635 14.3457 16.4518C14.399 15.4829 14.3778 14.5181 14.3843 13.5492C14.3888 11.3656 14.3778 9.18806 14.3945 7.01138L14.3941 7.01097Z" fill="white"/>
</svg>
