<svg width="28" height="27" viewBox="0 0 28 27" fill="none" xmlns="http://www.w3.org/2000/svg">
<rect x="0.499382" width="27" height="27" rx="10" fill="#FF8A37"/>
<path fill-rule="evenodd" clip-rule="evenodd" d="M16.9779 14.7903C16.8157 14.7096 16.0205 14.3206 15.8725 14.2665C15.7244 14.2128 15.6167 14.1863 15.5084 14.3477C15.4006 14.5081 15.0909 14.871 14.9967 14.9782C14.902 15.086 14.8079 15.099 14.6462 15.0188C14.4846 14.9376 13.9632 14.7681 13.3454 14.2199C12.8648 13.7931 12.5399 13.266 12.4457 13.1046C12.3516 12.9437 12.4354 12.8565 12.5165 12.7763C12.5894 12.7043 12.6781 12.5884 12.7592 12.4947C12.8403 12.4004 12.867 12.3333 12.9209 12.2255C12.9753 12.1182 12.9481 12.0245 12.9073 11.9438C12.867 11.8631 12.5437 11.0706 12.4087 10.7483C12.2776 10.4347 12.1442 10.4775 12.0452 10.4721C11.9504 10.4678 11.8427 10.4667 11.7349 10.4667C11.6272 10.4667 11.4519 10.5068 11.3039 10.6682C11.1553 10.8291 10.7378 11.2185 10.7378 12.011C10.7378 12.8029 11.3169 13.5683 11.398 13.6761C11.4791 13.7833 12.5383 15.4094 14.1607 16.1065C14.5472 16.2723 14.8482 16.3714 15.0827 16.445C15.4703 16.568 15.823 16.5507 16.1016 16.509C16.4119 16.4629 17.0585 16.1195 17.1934 15.7436C17.3279 15.3677 17.3279 15.0454 17.2876 14.9782C17.2473 14.9111 17.1396 14.871 16.9774 14.7903H16.9779ZM14.0269 18.8002H14.0247C13.061 18.8004 12.115 18.5426 11.2859 18.0538L11.09 17.9379L9.05328 18.4698L9.59701 16.4938L9.46911 16.2912C8.93035 15.4377 8.64524 14.45 8.64671 13.4421C8.6478 10.49 11.0611 8.08823 14.029 8.08823C15.4659 8.08823 16.8168 8.64614 17.8324 9.65798C18.3333 10.1545 18.7304 10.7449 19.0006 11.395C19.2708 12.0452 19.4087 12.7423 19.4064 13.4458C19.4054 16.3979 16.9921 18.8002 14.0269 18.8002V18.8002ZM18.6053 8.88935C18.0056 8.2886 17.2921 7.81227 16.5061 7.48795C15.7201 7.16364 14.8772 6.99779 14.0263 7.00002C10.4591 7.00002 7.5549 9.88981 7.55381 13.4415C7.55327 14.5768 7.85098 15.6851 8.41757 16.6617L7.49938 20L10.9305 19.1041C11.8796 19.6187 12.9433 19.8884 14.0241 19.8884H14.0269C17.594 19.8884 20.4983 16.9986 20.4994 13.4464C20.502 12.5999 20.3359 11.7613 20.0108 10.9791C19.6857 10.1969 19.208 9.48663 18.6053 8.88935" fill="white"/>
</svg>
